<svg width="72" height="61" viewBox="0 0 72 61" fill="none" xmlns="http://www.w3.org/2000/svg">
<path d="M52.8431 5.45536H59.6776C60.7777 5.45536 62.0991 6.46576 62.8515 7.20002C65.1971 9.49065 68.2951 12.8607 70.3879 15.3836C71.2098 16.3688 71.7535 17.1972 71.8736 18.5277C72.2783 23.2031 71.5702 28.4684 71.8547 33.2003C71.9179 34.2672 70.2488 36.0809 69.2625 36.0809H65.2477V43.003C65.2477 44.3084 63.724 46.2915 62.3583 46.2915H58.4827V53.7721C58.4827 53.9165 57.92 54.9834 57.7746 55.1716C56.5354 56.7782 54.3731 56.477 52.5775 56.5146C51.2119 62.4766 42.8283 62.4452 41.4121 56.5146H27.7113L27.547 56.6339C26.1497 62.4703 17.6587 62.3887 16.4827 56.5021C15.5217 56.2322 15.6544 57.2238 15.2941 57.9016C12.7967 62.6648 5.74085 61.6795 4.63442 56.5146C2.40892 56.6778 0.246645 55.8055 6.93346e-05 53.3517V23.2784C-0.0125756 22.0546 1.70713 20.2723 2.88943 20.2723H6.62599V13.3502C6.62599 13.2686 6.82831 12.4779 6.87889 12.3398C7.18869 11.4675 8.12441 10.5387 9.0222 10.2688C9.12968 10.2375 10.0275 10.0617 10.0844 10.0617H13.3973V2.58736C13.3847 1.62718 15.2119 -0.0421663 16.274 0.00176377H49.8146C51.0412 -0.0609934 52.8367 1.56442 52.8367 2.7317V5.46164L52.8431 5.45536ZM50.586 15.666V3.00783C50.586 2.68777 49.7767 2.10413 49.3973 2.22964H16.8304C16.4447 2.10413 15.6418 2.68777 15.6418 3.00783V10.0743H42.9105C43.4669 10.0743 44.744 10.6579 45.1613 11.0533C45.5343 11.411 46.2171 12.7352 46.2171 13.2184V15.666H50.586ZM69.6102 25.318V18.2516C69.6102 18.1951 69.136 17.3981 69.0475 17.2725C66.5248 14.7685 64.2804 11.8817 61.7956 9.36514C61.2772 8.84425 60.2909 7.68952 59.5385 7.68952H52.8431V15.6597L53.9685 15.7978V9.57224C53.9685 9.18942 54.8093 8.84425 55.1634 8.80032C56.1876 8.68108 59.2983 8.67481 60.1012 9.2208C60.9042 9.76678 62.4279 11.6118 63.1992 12.434C64.8494 14.1912 66.449 16.03 68.0359 17.8436C68.5291 18.6595 68.6049 21.3894 67.2835 21.3894H59.8863C61.1128 23.0964 63.2498 24.6528 64.3689 26.3786C64.7735 26.9999 65.2414 28.1421 65.2414 28.8701V33.8342H68.8325C69.4521 33.8342 69.7682 32.5225 69.6102 32.0142C66.0633 32.4096 65.4943 30.552 65.8041 27.4706C65.8863 26.661 66.6576 25.2992 67.5617 25.2992H69.6039L69.6102 25.318ZM56.2256 11.0533V17.4169L57.8441 19.1678H65.8736L66.019 18.8854L58.8304 11.0533H56.2256ZM39.4585 22.8705C39.5912 23.6863 39.3573 24.8097 39.4585 25.6695L39.6671 25.8766H43.7514L43.96 25.6695V13.3628C43.96 12.6975 42.9421 12.2582 42.3415 12.3085H10.4953C9.81883 12.252 8.88311 12.798 8.88311 13.5008V20.2849H36.7145C36.7714 20.2849 37.6945 20.6552 37.8209 20.7242C38.4216 21.0568 39.351 22.199 39.4585 22.8705ZM58.4764 44.0636H62.0675C62.7946 44.0636 63.2877 42.1056 62.7693 42.1056H60.6576C60.2024 42.1056 59.3994 41.1517 59.273 40.681C59.0454 39.8087 59.0454 37.1101 59.5385 36.3758C59.6839 36.1562 60.4679 35.5286 60.6576 35.5286H62.7693C62.9716 35.4031 62.9653 35.2525 62.9906 35.0454C63.1486 33.6898 63.0854 30.8469 62.9906 29.4349C62.8705 27.6965 62.1623 27.2321 61.0812 26.0146C59.1971 23.8809 57.0159 21.4585 55.0243 19.4439C54.6197 19.036 53.5954 17.9064 53.0517 17.9064H46.2171V25.8766L47.2034 26.0146V19.9335C47.2034 19.5381 47.8357 19.0674 48.253 19.0172C49.1571 18.9105 51.5723 18.9231 52.4827 19.0235C53.3931 19.1239 54.234 20.1719 54.8789 20.8372C57.1107 23.1341 59.1655 25.6381 61.3468 27.9852C61.7514 28.5061 61.7198 31.4682 60.9358 31.4682H53.254L54.3099 32.8677C55.2899 33.966 58.47 36.8653 58.47 38.2523V44.0573L58.4764 44.0636ZM59.3236 29.2341L58.2677 27.8346L52.2045 21.2639H49.4542V27.4894L51.0728 29.2403H59.3172L59.3236 29.2341ZM37.2013 45.4568V23.2847C37.2013 22.9646 36.3921 22.381 36.0127 22.5065H3.59122C3.18026 22.4249 2.25718 22.8705 2.25718 23.2847V45.4568H37.2013ZM69.6102 27.5585H68.0612V29.7989H69.6102V27.5585ZM46.5712 28.117H39.4521V54.0608C39.9326 54.475 40.7925 54.2052 41.4121 54.2554C42.7019 48.2244 51.1297 48.1303 52.6281 54.1299L52.7925 54.2491C54.4426 54.293 56.6112 54.6633 56.2256 52.3099H54.1834C54.0886 52.3099 53.469 51.9898 53.3362 51.8894C52.274 51.0987 52.293 48.9649 52.4384 47.7788C52.6977 45.6325 54.3921 45.4756 56.2256 45.5949L56.194 38.5598C56.0485 37.8506 54.8536 36.6771 54.3225 36.0809C52.4258 33.9283 50.2066 31.462 48.1961 29.4349C47.842 29.0772 47.0264 28.1986 46.5712 28.1107V28.117ZM62.9906 37.7691H61.4416V39.8651H62.9906V37.7691ZM37.2013 47.6972H2.25718V53.3642C2.25718 54.0357 3.84412 54.4876 4.41946 54.2554C4.95687 53.245 5.26034 52.2095 6.12652 51.3309C9.33832 48.0863 15.0032 49.8247 15.7935 54.2679H16.2614C16.5775 53.7596 16.666 53.201 16.9948 52.6049C19.5744 47.9106 26.5923 49.103 27.6228 54.2742H37.2077V47.7035L37.2013 47.6972ZM56.2256 47.8353C55.7198 47.8981 55.0496 47.647 54.6766 48.0424V50.0695H56.2256V47.829V47.8353ZM9.69238 51.9334C5.28563 52.5295 6.08858 59.3764 10.7735 58.7362C15.0665 58.1526 14.3394 51.2995 9.69238 51.9334ZM21.3826 51.9271C17.6587 52.5107 17.6397 58.2907 21.5027 58.73C26.8452 59.3387 26.6302 51.105 21.3826 51.9271ZM46.47 51.9334C42.1455 52.517 42.8599 59.345 47.5512 58.7362C51.8757 58.1777 51.1613 51.2995 46.47 51.9334Z" fill="white"/>
<path d="M27.3004 25.1979C28.3752 25.0034 29.0391 26.2585 28.3246 27.0618L12.6197 42.6633C11.684 43.1967 10.5775 42.4185 10.9126 41.3893L26.7693 25.518C26.9147 25.3862 27.0981 25.2293 27.3004 25.1917V25.1979Z" fill="white"/>
<path d="M19.8273 25.3432C20.959 25.0921 21.6797 26.1841 21.0601 27.1255L12.8915 35.2462C11.7219 36.1123 10.4258 34.9576 11.2098 33.715L19.3025 25.6632C19.4542 25.5189 19.6186 25.3871 19.8273 25.3432Z" fill="white"/>
<path d="M27.3004 32.4786C28.2424 32.3845 28.7798 33.4262 28.3309 34.2044L19.9411 42.5198C19.0749 43.1787 17.9179 42.2436 18.2403 41.2521L26.6302 32.7924C26.8072 32.6418 27.0728 32.4974 27.3067 32.4786H27.3004Z" fill="white"/>
<path d="M41.2477 29.2652C41.7092 29.1335 45.3826 29.1586 46.0148 29.2339C46.293 29.2652 46.508 29.3155 46.7166 29.5163L54.6576 38.1391C55.1065 39.0303 55.3088 41.2644 54.1265 41.6221H41.292C40.8431 41.4339 40.6471 41.1201 40.5902 40.6369C40.2108 37.3923 40.8873 33.4574 40.5902 30.1376C40.5649 29.8363 41.0011 29.3406 41.2603 29.2652H41.2477ZM45.6544 31.4743H42.8346V39.4445H52.6976C52.7609 39.1997 52.5965 39.1621 52.489 39.024C50.7187 36.7459 47.9242 33.9971 45.8568 31.8948C45.6987 31.7379 45.6734 31.4868 45.6544 31.4743Z" fill="white"/>
<path d="M44.0675 43.26C44.4532 43.6428 44.4532 44.4084 44.1117 44.8352C43.5996 45.469 40.1413 45.6447 40.7545 43.5989C41.0264 42.6951 43.5554 42.7516 44.0675 43.26Z" fill="white"/>
</svg>
