<svg width="58" height="58" viewBox="0 0 58 58" fill="none" xmlns="http://www.w3.org/2000/svg">
<path d="M58.0027 17.1107V58H51.8832C51.6626 57.8299 51.2025 57.4328 51.2025 57.1492V30.9254H6.80918V57.1492C6.80918 57.4328 6.34911 57.8299 6.12853 58H0.689653C0.330422 57.7101 -0.0351112 57.4517 0.00270255 56.9286L0.097237 16.0078L0.361933 15.7053L28.6655 0.063041C29.0122 -0.0693071 29.3525 0.018925 29.6487 0.214296L57.3599 16.449L58.0027 17.1107ZM56.0805 17.9048L29.0563 2.1617L28.7033 2.24994L1.93751 17.054V56.0715H4.88068V21.9194C4.88068 21.661 5.52981 21.1883 5.83863 21.2892H52.1731C52.4819 21.1883 53.131 21.661 53.131 21.9194V56.0715H56.0742V17.9048H56.0805ZM51.2088 23.2303H6.80918V25.1588H51.2088V23.2303ZM51.2088 27.081H6.80918V29.0095H51.2088V27.081Z" fill="white"/>
<path d="M24.8148 58.0001C24.2224 57.6345 24.1783 57.2438 24.1279 56.5884C23.8695 53.0402 24.3296 49.1832 24.1279 45.5972C24.0333 45.3325 24.5943 44.5195 24.7518 44.5195H35.6233L35.7934 44.3493V33.4778C35.7934 33.1312 36.5497 32.8791 36.8648 32.8476C40.4571 32.5199 44.5536 33.106 48.1963 32.8476C48.6312 32.8665 48.9589 33.0745 49.211 33.4148L49.274 57.1493C49.211 57.6471 48.9526 57.748 48.5871 57.9938H24.8022L24.8148 58.0001ZM39.6567 34.7824H37.7282V44.4123H47.3581V34.7824H45.4296V38.0092C45.4296 38.1794 44.9318 38.5827 44.686 38.6268C43.8856 38.7529 41.4718 38.715 40.6084 38.6394C40.287 38.6079 39.6504 38.3873 39.6504 38.0092V34.7824H39.6567ZM43.5074 34.7824H41.5789V36.7109H43.5074V34.7824ZM27.9849 46.448H26.0564V56.0779H35.6296L35.7997 55.9077V46.448H33.8712V49.3344C33.8712 49.8134 33.3292 50.1978 32.8818 50.2672C32.1129 50.3932 30.0962 50.368 29.2769 50.2987C28.9996 50.2735 28.5206 50.1915 28.3189 50.0088C28.2118 49.9142 27.9786 49.3218 27.9786 49.221V46.448H27.9849ZM31.9553 46.448H30.0268V48.3765H31.7852L31.9553 48.2063V46.448ZM39.6567 46.448H37.7282V56.0779H47.3581V46.448H45.4296V49.5613C45.4296 49.889 44.7742 50.2419 44.4591 50.2861C43.6524 50.3995 41.7995 50.368 40.955 50.2987C40.558 50.2671 39.6567 50.0655 39.6567 49.555V46.4417V46.448ZM43.5074 46.448H41.5789V48.3765H43.5074V46.448Z" fill="white"/>
<path d="M24.2224 13.5188C27.2097 13.6575 30.5373 13.2352 33.4868 13.4873C34.1674 13.544 34.6968 13.6827 34.785 14.4516C34.8922 15.3339 34.8733 17.4074 34.785 18.3086C34.7094 19.1594 34.2683 19.3169 33.4805 19.3863C31.1675 19.5816 26.8379 19.5816 24.5249 19.3863C23.9325 19.3359 23.3401 19.2035 23.2329 18.5292C23.1258 17.8548 23.1258 15.0188 23.2329 14.3507C23.3149 13.834 23.7371 13.5756 24.2224 13.5251V13.5188ZM32.8565 15.5293H25.1551V17.4578H32.8565V15.5293Z" fill="white"/>
</svg>
