<svg width="69" height="67" viewBox="0 0 69 67" fill="none" xmlns="http://www.w3.org/2000/svg">
<path d="M61.6347 20.6363H7.36533V65.1952C7.36533 65.596 6.55827 66.0332 6.17292 66.0915C5.46038 66.1935 1.37418 66.2081 0.821602 66.0405C0.458061 65.9312 0.0581665 65.443 0 65.0495L0.0508957 14.0709L0.399895 13.5826L34.4418 0L68.6001 13.5826L68.9491 14.0709L69 65.0422C68.9491 65.4357 68.5419 65.9239 68.1784 66.0332C67.6258 66.2008 63.5396 66.1862 62.8271 66.0842C62.4345 66.0259 61.6347 65.5887 61.6347 65.188V20.6363ZM66.7824 63.869V15.2659L34.5727 2.38279L2.2176 15.2659V63.869H5.14046V19.1716C5.14046 18.851 5.94025 18.2754 6.31833 18.3992H62.6889C63.067 18.2754 63.8668 18.851 63.8668 19.1716V63.869H66.7897H66.7824Z" fill="white"/>
<path d="M34.3255 28.3309C34.878 28.258 35.4961 28.7244 35.9832 28.9794C39.8149 30.9979 43.5158 33.5337 47.3475 35.5813C47.8346 35.8727 47.9582 36.1934 48.0018 36.7326C48.409 41.2067 47.6747 46.2929 48.0018 50.8326C48.0455 51.605 47.4711 51.8965 46.9258 52.2608C43.254 54.7165 38.8988 56.5892 35.198 59.0594C34.8199 59.2926 34.3836 59.3582 33.9765 59.1542C30.2174 56.6621 25.7823 54.7529 22.0669 52.2608C21.5288 51.8965 20.9472 51.605 20.9908 50.8326C21.318 46.2929 20.5836 41.2067 20.9908 36.7326C21.0853 35.6979 21.667 35.5958 22.4377 35.1149C26.2476 32.7103 30.421 30.6044 34.3255 28.3309ZM24.3426 36.6743C25.0334 36.8419 26.0149 37.9058 26.7056 37.7309L36.5867 32.0034C36.0196 31.6537 34.8635 30.6772 34.2164 30.874L24.3426 36.6743ZM40.2075 34.1603C40.2875 34.0437 39.0369 33.2276 38.7825 33.3515L28.7996 39.1154C28.916 39.3777 29.9921 39.9752 30.3265 39.8222L40.2075 34.1603ZM44.6573 36.5358C43.9665 36.3901 42.9486 35.3117 42.2943 35.4793L32.4132 41.2067L34.5436 42.511L44.6573 36.5358ZM31.1627 43.2251V47.3422C31.1627 47.6118 30.1011 48.2385 29.7303 47.9397L25.6659 45.5934C25.1206 44.9521 25.6586 41.0245 25.426 39.9752L23.2229 38.6272V50.2715L33.3803 56.1957V44.34L31.1554 43.2251H31.1627ZM45.7697 38.6272L35.6124 44.3473V56.203L45.7697 50.2788V38.6344V38.6272ZM28.9378 44.9011V41.9062L27.6872 41.1411V44.136L28.9378 44.9011Z" fill="white"/>
<path d="M17.6609 62.3317C19.0205 61.8653 20.0311 63.7453 18.8315 64.4084C18.4388 64.627 14.5999 65.0715 14.12 64.9768C13.88 64.9331 13.4511 64.5541 13.3784 64.321C13.2475 63.8619 13.6328 60.5027 13.8073 59.927C14.3163 58.1709 16.294 59.0016 16.0686 60.6557L21.0127 55.7152C22.1033 55.023 23.303 56.0504 22.6559 57.2236L17.6609 62.3317Z" fill="white"/>
<path d="M53.0042 60.6623C52.6625 58.9062 54.7638 58.2067 55.2146 60.0502C55.3673 60.6842 55.7453 63.6864 55.6435 64.211C55.5999 64.4515 55.2218 64.8814 54.9892 64.9543C54.5311 65.0854 50.5831 64.6409 50.1614 64.4077C49.4052 63.9851 49.5143 62.6589 50.3504 62.3966C50.6921 62.2873 51.0339 62.3966 51.332 62.2654L46.4023 57.3104C45.668 56.1955 46.7586 55.066 47.9074 55.6636L53.0042 60.6623Z" fill="white"/>
<path d="M17.6608 25.2418L22.6559 30.3499C23.2666 31.5303 22.1614 32.5796 21.0127 31.8582L16.0685 26.9178C15.9376 27.2165 16.0467 27.559 15.9376 27.9015C15.6759 28.7395 14.3453 28.8488 13.9309 28.0909C13.72 27.712 13.371 24.6661 13.3492 24.0613C13.3274 23.3618 13.4874 22.7278 14.2726 22.604C14.8107 22.5165 17.7917 22.8881 18.4024 23.0485C20.1256 23.493 19.3258 25.6571 17.6681 25.2491L17.6608 25.2418Z" fill="white"/>
<path d="M53.0042 26.91L47.9074 31.916C46.7295 32.5281 45.6825 31.4205 46.4023 30.2692L51.3319 25.3142C50.7721 25.1903 50.1541 25.3433 49.8196 24.7385C49.3761 23.9515 49.7833 23.2593 50.6049 23.0479C51.2447 22.8803 54.4584 22.5014 54.9601 22.6617C55.6581 22.8803 55.6654 23.5945 55.6508 24.1993C55.6363 24.7604 55.28 27.7334 55.0764 28.0904C54.4148 29.2928 52.5389 28.2872 53.0042 26.9173V26.91Z" fill="white"/>
<path d="M26.2476 10.0625L42.8541 10.0989C43.254 10.2884 43.603 10.6382 43.6757 11.0899C43.7702 11.6802 43.7702 15.1414 43.6248 15.6223C43.5012 16.0304 42.9486 16.4603 42.5051 16.453L26.1458 16.3875C25.7459 16.198 25.3969 15.8482 25.3242 15.3965C25.1933 14.573 25.2296 12.234 25.3096 11.3523C25.3678 10.6892 25.615 10.303 26.2476 10.0625ZM41.4581 12.2704H27.5418V14.2233H41.4581V12.2704Z" fill="white"/>
</svg>
