<svg width="71" height="66" viewBox="0 0 71 66" fill="none" xmlns="http://www.w3.org/2000/svg">
<path d="M70.463 53.6984C70.4145 53.2216 69.7152 49.8362 68.2195 49.8362H56.1378V38.2689C56.2349 38.3261 56.332 38.3928 56.4291 38.4596C57.5654 39.2034 58.9737 40.1284 60.0226 39.7374C60.4888 39.5658 60.8093 39.1653 60.9744 38.5454C61.1783 37.7825 60.8384 36.7526 60.4693 35.656C60.2168 34.9026 59.9546 34.1206 59.9449 33.5771C60.2362 33.2528 60.7995 32.8332 61.392 32.4041C62.5866 31.5363 63.8297 30.6304 63.8686 29.7054C63.9074 28.809 63.2081 27.9603 62.2563 27.8077L57.8762 27.6074C57.6723 26.9876 57.4295 26.3677 57.1964 25.767C57.0507 25.395 56.905 25.0136 56.769 24.6417C56.7205 24.4986 56.5457 24.1458 56.3806 23.8311C56.264 23.6022 56.1669 23.3925 56.1183 23.2971V20.9512C56.3903 21.1133 56.6622 21.304 56.9439 21.5043C57.75 22.086 58.5852 22.6963 59.6729 22.5151C60.6344 22.3626 61.0909 21.4089 61.0326 20.5793C61.0035 20.1216 60.751 19.3491 60.479 18.529C60.2557 17.8329 59.8866 16.7076 59.9157 16.3548C60.2265 16.0019 60.7898 15.5919 61.3726 15.1723C62.6351 14.2568 63.9462 13.3032 63.8588 12.197C63.8103 11.5772 63.3441 11.0431 62.4312 10.5663L57.8374 10.347C57.6528 9.90833 57.478 9.35523 57.2935 8.77353C56.9827 7.7913 56.6622 6.78047 56.2252 6.13201C56.0115 5.81732 55.7396 5.67428 55.5356 5.56938C55.4773 5.54077 55.3899 5.49309 55.3705 5.48355C55.3219 5.42634 55.2248 5.16886 55.1568 4.99721C55.05 4.72066 54.9335 4.42504 54.8072 4.22478C53.4864 2.11729 51.6605 0.734547 49.5918 0.324492C40.987 0.162377 32.2073 0.124233 23.719 0.0860881C18.8435 0.0670158 13.9389 0.0479434 9.04407 0.000262647C6.14988 -0.0188097 3.5859 1.00156 1.91543 2.82296C0.439197 4.43458 -0.21151 6.52299 0.0604269 8.85935C0.108987 9.30755 0.749982 12.3114 2.06111 12.588H12.6861L3.62475 16.4501C3.11001 16.7171 2.77009 17.1558 2.69239 17.7184C2.78951 19.2824 2.74095 20.9035 2.69239 22.62C2.58556 25.9481 2.47873 29.4002 3.54705 32.4423C4.7999 35.9993 7.45129 39.0604 10.7922 40.8246C10.8117 40.8341 10.8214 40.8436 10.8408 40.9581C10.9865 41.6923 10.9185 42.7032 10.8505 43.6854C10.8019 44.4292 10.7534 45.1921 10.7922 45.8692C8.45163 46.1934 6.5675 47.8718 6.23729 49.9697C6.04305 51.219 6.40239 55.3386 6.82001 56.5592C7.48043 58.4855 9.1509 59.4677 10.7631 60.4214C11.2778 60.7265 11.7634 61.0126 12.2199 61.3178C12.317 61.8041 12.2782 62.3477 12.2393 62.8817C12.1519 64.1405 12.0451 65.7044 14.1914 65.8856C15.2403 65.9714 16.3184 66 17.4061 66C18.7755 66 20.1644 65.9523 21.524 65.9046C23.7675 65.8284 26.0984 65.7425 28.2448 65.8856C28.6333 65.9237 29.4102 65.7044 29.8181 65.342C30.0706 65.1227 30.1192 64.9034 30.1192 64.7603V62.2904C34.3731 62.3095 38.6852 62.2904 42.8614 62.2904C47.3484 62.2714 51.981 62.2618 56.536 62.2904C57.2449 62.2904 57.9733 62.3286 58.7115 62.3667C61.7028 62.5288 64.7912 62.6814 67.2775 60.8123C69.5015 59.1435 70.7155 56.4162 70.4436 53.6984H70.463ZM3.87726 5.13072C4.80962 3.78612 6.32469 3.01369 8.04373 3.01369C11.4818 3.01369 14.2594 5.76964 14.3663 9.35523C14.3663 9.51735 14.3663 9.62224 14.3468 9.67946H3.31396C2.77009 8.12507 2.97404 6.4467 3.88697 5.14025L3.87726 5.13072ZM14.2789 59.1149C13.7156 58.5809 12.9774 58.209 12.2685 57.8466C11.1127 57.2553 10.0153 56.7023 9.62679 55.5007C9.37428 54.7092 9.06349 51.219 9.23831 50.3988C9.41312 49.5501 9.96671 49.1591 10.8699 48.8731C10.8699 49.2545 10.8602 49.6646 10.8408 50.0555C10.8117 50.6945 10.7728 51.362 10.8505 51.9628C10.9865 53.1071 11.7343 53.6316 12.4044 53.6507C12.4044 53.6507 12.4239 53.6507 12.4336 53.6507C13.0649 53.6507 13.7544 53.212 13.9292 52.163L13.9681 36.1232C14.1914 35.675 14.5799 35.5606 14.8713 35.5987C15.1918 35.6464 15.5706 35.9039 15.6385 36.4951C15.7939 37.8493 15.7162 39.4037 15.6385 40.9104C15.5608 42.4552 15.4734 44.0573 15.6385 45.4782C15.6968 45.9741 15.9396 46.3841 16.3087 46.6225C16.6583 46.8419 17.0856 46.8895 17.5227 46.756C18.1054 46.5748 18.3385 46.098 18.523 45.7166C18.7755 45.2016 18.9115 44.9251 19.6593 45.0395C20.1158 45.1063 20.1838 45.3447 20.2809 45.8692C20.378 46.3269 20.5043 46.9468 21.223 47.1756C22.233 47.4903 22.6798 46.9754 22.9906 46.5939C23.2528 46.2792 23.4179 46.079 23.8744 46.1553C24.2531 46.2125 24.3017 46.4032 24.3697 46.9658C24.4279 47.4331 24.4959 48.0816 25.1661 48.3581C26.0207 48.7205 26.6132 48.3009 27.0502 47.9957C27.5164 47.662 27.6815 47.5571 28.07 47.9957L28.1379 58.5618C28.1379 58.9146 27.8951 59.401 27.6621 59.8587C27.3998 60.3737 27.157 60.8696 27.157 61.3178V62.958H15.4346L15.2403 62.8817V60.7647C15.2403 60.3546 14.4828 59.3056 14.2886 59.1244L14.2789 59.1149ZM5.66428 22.3435C5.70312 21.1801 5.74197 19.9785 5.73226 18.8151L15.7842 14.5524L25.8556 18.6911C25.7973 20.1597 25.8556 21.7046 25.9042 23.2017C25.9722 25.0422 26.0304 26.9399 25.8847 28.6946C25.5351 32.8523 22.437 37.0292 18.5813 38.6312C18.5813 38.3261 18.6007 38.0018 18.6104 37.6872C18.6396 37.115 18.6687 36.5237 18.6007 35.9993C18.4162 34.6833 17.5712 33.5771 16.3281 33.024C15.0947 32.4804 13.6961 32.5853 12.589 33.3005C11.035 34.3114 10.8505 35.9325 10.8408 37.382C7.86891 35.3317 5.90708 31.8033 5.66428 28.027C5.54773 26.177 5.606 24.2316 5.66428 22.353V22.3435ZM23.2042 43.2181C23.0003 43.2372 22.7769 43.3135 22.5729 43.3802C22.505 43.4088 22.4078 43.4375 22.3496 43.4565C22.2719 43.3898 22.1359 43.2563 22.0485 43.1704C21.8834 43.0083 21.7086 42.8367 21.592 42.7604C20.7082 42.1501 19.805 41.9689 18.6104 42.1691V41.7877C19.8633 41.4063 21.1356 40.7578 22.3884 39.8423C22.6021 40.2047 22.9614 40.5957 23.651 40.6148L47.0376 40.5957C47.5815 40.5099 48.0088 40.157 48.1933 39.6516C48.3778 39.1462 48.2613 38.5836 47.902 38.183C47.834 38.1067 47.2124 37.6872 46.989 37.6872H24.9135C25.8362 36.5619 26.7006 35.3031 27.5358 33.8727L42.8128 33.8345C43.7938 33.682 44.1822 32.9 44.124 32.1943C44.0657 31.4696 43.5995 30.926 43.0459 30.926H28.4779C28.5167 30.6495 28.5847 30.3634 28.643 30.0678C28.7304 29.6863 28.8178 29.2953 28.8566 28.9044C28.8663 28.7613 28.8566 28.5134 28.8566 28.2368C28.8469 27.9221 28.8178 27.226 28.8955 26.9685L47.125 26.9494H47.2221C47.9311 26.7492 48.3196 26.1484 48.2225 25.4046C48.135 24.7371 47.6203 24.0314 46.8433 24.0314H28.8566V20.1883H47.125C47.7563 20.1883 48.1933 19.4922 48.2419 18.8246C48.3099 18.0045 47.834 17.4037 46.9696 17.2702H28.8081C28.4876 16.7171 28.1379 16.5455 27.6718 16.3262L27.4387 16.2117C25.6905 15.3535 23.7967 14.6192 21.9611 13.9135C20.4266 13.3223 18.8435 12.712 17.3673 12.0349C17.2799 11.6821 17.309 10.4805 17.3187 9.87972C17.3284 9.42199 17.3382 9.031 17.3187 8.83074C17.1536 6.67557 16.2892 4.66344 14.8616 3.0709H48.5235C48.6789 3.0709 49.4656 3.29977 49.8249 3.43328C51.2915 3.99591 52.4083 5.6266 52.7774 6.98073L51.4371 10.3184L46.6977 10.6331L46.6103 10.6903C45.8916 11.1766 45.5322 11.7202 45.5322 12.3019C45.5322 13.4367 46.8919 14.3999 48.0962 15.2486C48.6401 15.63 49.1548 15.9924 49.4656 16.3166C49.417 16.7648 49.2131 17.3847 48.9994 18.0427C48.5235 19.4922 47.9894 21.1324 48.8052 22.0002C49.9706 23.2589 51.5828 22.1146 52.7677 21.285C52.8939 21.1896 53.0202 21.1038 53.1465 21.018V23.402L51.4177 27.5788C50.9418 27.6647 50.2134 27.6647 49.5044 27.6647C48.203 27.6647 46.9696 27.6647 46.348 28.0747C45.8818 28.3799 45.5905 28.8281 45.5322 29.343C45.4642 29.9152 45.6876 30.516 46.1344 30.9737C46.3674 31.2121 47.0473 31.7175 47.8243 32.2897C48.4458 32.757 49.2908 33.3768 49.4656 33.5199C49.4267 33.9585 49.2228 34.607 48.9994 35.284C48.5235 36.7431 47.9894 38.3928 48.8052 39.2511C50.0095 40.5194 51.5634 39.3941 52.6997 38.574C52.8551 38.4596 53.0008 38.3547 53.1465 38.2593V49.8171H31.1001V47.6238C31.1001 47.6238 31.1001 47.538 31.0807 47.4999H46.9793C47.193 47.4999 47.7951 47.0993 47.8145 47.0898C48.203 46.737 48.3584 46.1743 48.2127 45.6403C48.0671 45.1158 47.6786 44.7344 47.0959 44.6104L26.7394 44.5818L26.6326 44.496C25.5643 43.6091 24.9233 43.0846 23.2042 43.2086V43.2181ZM56.8953 15.2963C56.6525 16.0496 56.9244 16.8983 57.1964 17.7184C57.2644 17.9187 57.3226 18.119 57.3809 18.3097C57.2158 18.2048 57.0507 18.0808 56.8856 17.9568C56.1766 17.4419 55.4482 16.9174 54.7295 16.9174C54.0108 16.9174 53.2241 17.461 52.4763 17.9855C52.3209 18.0904 52.1753 18.1952 52.0296 18.2906C52.0781 18.119 52.1461 17.9282 52.2044 17.747C52.4666 16.9651 52.7385 16.1545 52.5734 15.4584C52.3986 14.7432 51.612 14.1901 50.9224 13.6942C50.7184 13.5511 50.5242 13.4081 50.3591 13.2841H52.3501C53.6126 13.2841 54.1371 11.8251 54.5644 10.6522C54.613 10.5091 54.6712 10.3661 54.7198 10.223C54.7587 10.3375 54.7975 10.4614 54.8363 10.5759C55.2443 11.7774 55.7493 13.2746 57.1187 13.2746H59.0514C58.964 13.3413 58.8668 13.4081 58.7697 13.4844C57.7791 14.2187 57.0701 14.7718 56.905 15.2867L56.8953 15.2963ZM56.8565 32.6807C56.6914 33.4054 56.9439 34.1874 57.1867 34.9503C57.2547 35.1601 57.3226 35.3603 57.3712 35.5606C57.1187 35.3889 56.837 35.1982 56.6234 35.0456C55.9727 34.5879 55.7104 34.4162 55.5745 34.359C55.3025 34.2541 55.0403 34.216 54.7878 34.216C53.904 34.216 53.1367 34.75 52.4375 35.2364C52.2918 35.3413 52.1461 35.4462 52.0004 35.5415C52.049 35.3699 52.117 35.1791 52.1753 34.998C52.4375 34.216 52.7094 33.4054 52.5443 32.7093C52.3792 32.0322 51.6217 31.4886 50.8835 30.9546C50.6796 30.8116 50.4854 30.6685 50.33 30.535H52.3209C53.5835 30.535 54.1079 29.076 54.5353 27.9031C54.5838 27.76 54.6421 27.617 54.6907 27.4835C54.7198 27.5693 54.7489 27.6647 54.7878 27.76C55.2151 28.9997 55.7493 30.535 56.9633 30.535C57.1575 30.535 57.4295 30.5255 57.7402 30.516C58.1579 30.4969 58.7212 30.4778 59.1291 30.4874C58.3036 31.0309 57.0216 31.9845 56.8565 32.6807ZM31.0904 55.9203C31.0418 54.8618 30.9933 53.8605 31.1098 52.8592C31.1098 52.8306 31.1098 52.7924 31.1195 52.7638H67.1804C68.0447 55.186 67.025 57.7989 64.7426 58.9242C63.1402 59.7157 60.6927 59.5726 58.5366 59.4391C57.8277 59.401 57.1575 59.3533 56.5457 59.3533C54.7101 59.3438 52.8745 59.3342 51.0292 59.3342C48.4264 59.3342 45.8236 59.3438 43.279 59.3533C39.2679 59.3724 35.1112 59.3819 31.0321 59.3533C31.1972 58.2376 31.139 57.0551 31.0807 55.9012L31.0904 55.9203Z" fill="white"/>
<path d="M42.3568 10.5L23.1366 10.5286L23.0395 10.6049C22.1363 11.3106 22.1654 11.959 22.2626 12.2833C22.4568 12.9126 23.1949 13.3513 24.1855 13.4276C25.5064 13.542 26.8758 13.5802 28.2549 13.5802C29.9836 13.5802 31.7415 13.5134 33.4703 13.4562C36.2868 13.3608 39.1907 13.2559 41.9392 13.4276C43.0269 13.4181 43.6873 12.6742 43.7456 11.9781C43.7942 11.425 43.4834 10.7098 42.3568 10.5Z" fill="white"/>
<path d="M13.8325 31.0965C14.1433 31.2872 14.4638 31.3825 14.794 31.3825C15.0368 31.3825 15.2796 31.3349 15.5224 31.23L23.0395 24.4974L23.1269 24.3735C23.3697 23.8108 23.292 23.1719 22.9132 22.7237C22.5733 22.3137 22.0392 22.142 21.4856 22.2469L21.3884 22.266L14.8328 27.94C14.6483 27.7874 14.3472 27.4632 14.1044 27.2152C13.2983 26.357 12.6767 25.7467 12.1329 25.6799C11.5404 25.6036 11.016 25.8039 10.6955 26.2235C10.3653 26.6526 10.2973 27.2343 10.5304 27.7969C10.6858 28.1593 13.6188 30.982 13.8033 31.0965H13.8325Z" fill="white"/>
</svg>
