<svg width="73" height="73" viewBox="0 0 73 73" fill="none" xmlns="http://www.w3.org/2000/svg">
<path d="M73 34.354V38.6308C72.7811 39.5061 72.8109 40.4808 72.6915 41.3859C70.5918 57.4588 57.4961 70.5976 41.3852 72.6664C40.4796 72.7858 39.4945 72.7559 38.6287 72.9747C37.2057 72.9151 35.7628 73.0543 34.3497 72.9747C1.98862 71.1745 -12.1022 30.4452 12.4572 8.99145C35.2752 -10.9306 71.3282 4.33668 73 34.354ZM34.3497 4.42619C32.1406 4.47592 29.812 4.81409 27.7223 5.56999C26.1201 9.51859 24.6872 13.5667 23.7916 17.744C27.2446 18.5795 30.7972 19.0072 34.3497 19.1066V4.42619ZM38.6287 4.42619V19.1066C42.1813 19.0072 45.7339 18.5795 49.1869 17.744C48.2913 13.5667 46.8484 9.51859 45.2562 5.56999C44.888 5.13236 38.8775 4.17754 38.6287 4.42619ZM22.2292 7.7084C19.5524 8.92183 16.8258 10.7619 14.6664 12.761C14.4475 12.9699 13.104 14.2132 13.2434 14.4021L19.6619 16.6798L22.2292 7.69846V7.7084ZM59.7351 14.4021C59.7948 14.1833 59.6754 14.1634 59.5958 14.0441C58.9689 13.139 56.7 11.3487 55.7348 10.6425C55.277 10.3043 50.9781 7.4697 50.7592 7.7084L53.3266 16.6897L59.7451 14.4121L59.7351 14.4021ZM4.39679 34.354H17.2338C17.4228 29.8086 17.8905 25.2931 18.6568 20.8174C15.761 20.0316 12.9647 18.9376 10.2481 17.6744C6.92439 22.6077 4.59582 28.3366 4.39679 34.3441V34.354ZM68.5817 34.354C68.3827 28.3366 66.0541 22.6077 62.7304 17.6843C60.0138 18.9376 57.2175 20.0416 54.3217 20.8273C55.0879 25.3031 55.5556 29.8186 55.7447 34.364H68.5817V34.354ZM34.3497 23.3835C30.4588 23.3039 26.5879 22.7668 22.7965 21.9612C22.1397 26.0689 21.6919 30.1965 21.5128 34.364H34.3497V23.3934V23.3835ZM38.6287 23.3835V34.354H51.4657C51.2866 30.1965 50.8388 26.059 50.182 21.9512C46.3906 22.7569 42.5196 23.3039 38.6287 23.3735V23.3835ZM17.2338 38.6308H4.39679C4.59582 44.6482 6.92439 50.3772 10.2481 55.3005C12.9647 54.0473 15.761 52.9433 18.6568 52.1575C17.8905 47.6818 17.4228 43.1663 17.2338 38.6209V38.6308ZM34.3497 38.6308H21.5128C21.6919 42.7883 22.1397 46.9259 22.7965 51.0336C26.5879 50.228 30.4588 49.681 34.3497 49.6113V38.6408V38.6308ZM51.4657 38.6308H38.6287V49.6014C42.5196 49.681 46.3906 50.218 50.182 51.0237C50.8388 46.9159 51.2866 42.7883 51.4657 38.6209V38.6308ZM68.5817 38.6308H55.7447C55.5556 43.1762 55.0879 47.6917 54.3217 52.1675C57.2175 52.9532 60.0138 54.0473 62.7304 55.3105C66.0541 50.3772 68.3827 44.6482 68.5817 38.6408V38.6308ZM34.3497 53.8782C30.7972 53.9777 27.2446 54.4054 23.7916 55.2408C24.6872 59.4182 26.1301 63.4663 27.7223 67.4149C29.812 68.1708 32.1406 68.5089 34.3497 68.5587V53.8782ZM38.6287 53.8782V68.5587C40.8379 68.5089 43.1665 68.1708 45.2562 67.4149C46.8583 63.4663 48.2913 59.4182 49.1869 55.2408C45.7339 54.4054 42.1813 53.9777 38.6287 53.8782ZM19.6619 56.3051C17.6517 57.0112 15.3132 57.5981 13.4225 58.5529C13.323 58.6026 13.1439 58.5628 13.2434 58.7916C13.3031 58.9308 14.5768 60.1542 14.8057 60.3631C16.9352 62.2926 19.6121 64.0829 22.2193 65.2764L19.6519 56.2951L19.6619 56.3051ZM59.7351 58.5827L53.3166 56.3051L50.7492 65.2864C53.4261 64.073 56.1527 62.2329 58.3121 60.2338C58.531 60.0249 59.8744 58.7816 59.7351 58.5927V58.5827Z" fill="#FCFCFC"/>
</svg>
