<svg width="321" height="62" viewBox="0 0 321 62" fill="none" xmlns="http://www.w3.org/2000/svg">
<path d="M45 3.44897V58.551H0V3.44897H45ZM44.326 4.11456H0.674023V57.8827H44.3232V4.11456H44.326Z" fill="#7B7B7B"/>
<path d="M34.0294 23.6958C39.1462 23.2326 42.766 26.5799 42.1834 31.6075C41.3041 39.192 29.0016 39.3961 27.6826 32.0367C26.9192 27.7812 29.5356 24.1015 34.0294 23.6958ZM34.2425 25.8288C30.7063 26.3653 30.2666 33.7378 33.6113 35.0595C39.5184 37.394 40.4409 24.8892 34.2425 25.8288Z" fill="#7B7B7B"/>
<path d="M24.0341 23.8711L25.1297 28.3634L23.3901 28.7549C22.2491 27.0026 20.7152 25.5367 18.4171 25.7941C17.4792 25.8992 16.7096 26.6033 17.3295 27.5096C18.1927 28.7706 23.024 28.9939 24.7048 30.6779C25.9474 31.9206 26.0356 33.996 25.0095 35.391C23.1202 37.9577 19.0959 37.9025 16.5653 36.3184L16.1618 37.1643L14.6493 37.1801L13.7755 32.0283L15.5258 31.6447C16.3408 33.573 18.3664 35.3884 20.595 35.3595C22.4548 35.3358 23.7348 33.7333 21.6772 32.6851C19.4539 31.5528 15.1918 31.537 14.2325 28.8311C12.6639 24.4122 19.1092 22.3762 22.2277 24.4963L22.6927 23.8763L24.0314 23.8711H24.0341Z" fill="#7B7B7B"/>
<path d="M33.4387 20.4045C33.2179 20.1609 32.7599 19.1281 32.4867 18.7173C32.3045 18.4444 31.5457 17.3206 31.3249 17.3177L27.8783 18.7584C28.0411 19.2044 28.3778 20.2226 27.7762 20.3781C27.1746 20.5336 27.3595 19.0107 27.136 18.9902C25.381 19.4391 23.5845 19.6328 21.7853 19.7149C21.846 20.2871 21.8102 21.2671 21.1037 20.7155L21.0954 19.7296L15.8745 18.8699C15.582 18.9198 15.7751 20.9121 14.9031 20.2607C14.5361 19.9937 15.1708 18.7496 15.0825 18.6322L11.6993 17.0859C11.2164 17.6962 10.7363 18.3095 10.2975 18.9609C10.0464 19.3364 9.77597 20.0318 9.53589 20.3135C9.31238 20.5717 8.90949 20.5717 8.81842 20.2402C8.68597 19.7678 10.5321 17.2326 10.9488 16.7719L9.31514 15.4281C7.74222 16.7895 6.37902 18.4063 5.26143 20.2079C3.50638 20.7977 5.71122 18.1158 6.10307 17.6229C14.4671 7.04506 29.901 7.39423 38.0305 18.1041C38.3203 18.4855 39.5786 20.2108 39.4848 20.5952C39.2033 21.7601 37.8622 19.2103 37.6276 18.8934C36.637 17.5671 35.5525 16.3113 34.2528 15.3166L32.1693 16.9128C32.1362 17.0859 33.8664 19.2073 34.032 19.8352C34.0844 20.0348 34.1479 20.2167 33.9685 20.381C33.8223 20.513 33.5794 20.5688 33.4332 20.4074L33.4387 20.4045ZM25.7369 11.0767C22.9526 10.5133 20.033 10.5514 17.2735 11.2556C19.7433 12.934 23.3748 12.9956 25.7369 11.0767ZM33.6374 14.6769C31.5374 13.248 29.3381 12.0068 26.9014 11.3378L26.4185 11.7339C28.2867 13.0308 30.028 14.5009 31.5678 16.2203L33.6401 14.674L33.6374 14.6769ZM10.0547 15.0349L11.5614 15.9797C13.0598 14.3806 14.7486 13.0279 16.4843 11.7368C16.3574 11.552 16.3188 11.5579 16.1173 11.5813C15.0632 11.7104 11.0067 13.8671 10.2258 14.6769C10.1154 14.7914 10.0133 14.8354 10.0547 15.032V15.0349ZM17.2459 12.2973C16.8762 12.353 15.146 13.7468 14.7403 14.0813C13.8794 14.7972 13.0625 15.5718 12.312 16.4169C12.7673 16.769 15.088 18.0014 15.4716 17.7432L18.6285 12.9369C18.6229 12.8577 17.4226 12.2709 17.2487 12.2973H17.2459ZM30.8144 16.7133C30.8613 16.5313 30.7703 16.5137 30.704 16.414C30.4722 16.056 29.4374 15.1347 29.0621 14.8002C28.4716 14.272 26.4489 12.5643 25.8418 12.3384C25.312 12.1447 24.8456 12.802 24.2689 12.758L26.9125 16.725L27.5444 18.0366L30.8144 16.7133ZM21.112 13.3565L19.4397 13.1365C18.8492 14.0725 18.129 14.9117 17.5219 15.8389C17.2791 16.2086 16.3077 17.6639 16.258 17.975C16.2167 18.2244 16.763 18.2625 16.959 18.3153C17.6599 18.5002 18.5484 18.6616 19.2659 18.7408C19.5198 18.7701 21.1148 18.9755 21.1148 18.6968V13.3565H21.112ZM21.7881 13.3565V18.8758C22.2241 18.9697 26.7552 18.4796 26.7552 18.2126C25.9715 16.3582 24.6773 14.8354 23.5459 13.2245C23.2865 13.0132 22.1717 13.3008 21.7881 13.3536V13.3565Z" fill="#7B7B7B"/>
<path d="M27.5234 42.9001L27.7748 41.7027L28.3697 41.6674L28.3334 43.1119L31.8082 44.4288C31.892 44.4207 32.7384 43.3373 32.8697 43.1554C33.1099 42.8268 33.6909 41.7136 33.8613 41.5642C34.3417 41.1407 34.6015 41.6511 34.4032 42.2023C34.23 42.6802 32.4535 44.7628 32.5512 44.8931L34.5484 46.2046C36.2998 44.9529 37.6545 43.2966 38.9478 41.6158C40.1042 41.5615 39.1014 42.6612 38.7662 43.1092C31.4647 52.8923 16.3671 53.9268 7.47618 45.5638C6.79462 44.923 5.05163 43.0576 4.67175 42.2946C4.42315 41.8005 4.79745 41.366 5.20247 41.6674C6.36726 43.3427 7.71919 44.9339 9.41749 46.115L11.0739 45.0533C11.1186 44.8606 8.84208 42.3462 8.92029 41.7543L9.21358 41.4665C9.42587 41.4122 9.52922 41.5507 9.65492 41.6729C10.0851 42.091 11.3169 44.5483 11.9314 44.5619C12.3895 44.5727 14.5571 43.1961 15.3057 43.2314C15.3615 43.1581 14.5906 41.5697 15.3615 41.5615C15.923 41.5561 15.7861 42.9219 16.1576 42.9789C17.8503 42.5091 19.6073 42.3109 21.3615 42.2349L21.3782 41.3063C22.3447 40.5596 21.8391 42.091 22.2329 42.2186C24.0178 42.2621 25.8055 42.4413 27.5262 42.9001H27.5234ZM21.3587 43.0115C20.9201 42.8757 16.4369 43.4894 16.4425 43.7364C17.2917 45.3873 18.5263 46.8074 19.6967 48.241L21.3587 48.1189V43.0115ZM22.043 43.0115V48.1189L23.8195 48.241C25.0402 46.7531 26.2552 45.2516 27.1826 43.5681C25.4983 43.207 23.7748 42.9463 22.043 43.0115ZM27.8781 43.7962L24.6687 48.6185C25.2944 48.7624 25.6491 49.2294 26.2692 48.9579C26.691 48.7732 27.3809 48.2682 27.7887 47.9885C29.0094 47.1468 30.163 46.134 31.177 45.0669C31.177 44.8497 28.0485 43.6794 27.8781 43.7989V43.7962ZM18.8447 48.5614L15.5794 43.9075L12.451 45.1212C12.4035 45.2896 12.4957 45.3059 12.5627 45.3982C12.8001 45.7322 13.7359 46.4734 14.1102 46.7802C15.1325 47.6192 16.2498 48.3524 17.3699 49.061L18.8475 48.5587L18.8447 48.5614ZM33.9227 46.783C34.0065 46.6635 32.2356 45.3927 31.9479 45.4633C30.3753 47.0409 28.6127 48.404 26.7301 49.615L27.1044 49.8702C29.5736 49.2538 31.7971 48.1026 33.9227 46.7802V46.783ZM16.6744 49.452C14.828 48.4881 13.275 47.1088 11.7946 45.6887C11.37 45.5747 10.5404 46.3974 10.1633 46.6173C10.1102 46.821 11.6856 47.7197 11.9566 47.8718C12.8029 48.3415 15.7777 49.7779 16.6157 49.672L16.6716 49.452H16.6744ZM25.9256 50.1146C23.6268 48.4501 20.0011 48.4908 17.585 49.9489C20.2749 50.6658 23.191 50.5897 25.9256 50.1146Z" fill="#7B7B7B"/>
<path d="M11.9388 23.6531V25.5411C11.3704 25.5492 10.7259 25.3917 10.4116 26.0137L10.3539 35.0163C10.5164 35.7416 11.3887 35.5107 11.9388 35.5406V37.4286H5.51025V35.5406L6.83317 35.4401C6.95629 35.3586 7.06893 34.8452 7.08989 34.6795C7.32304 32.8051 7.23921 28.9938 7.12133 27.0379C7.04012 25.6959 6.91438 25.427 5.51025 25.5438V23.6558H11.9388V23.6531Z" fill="#7B7B7B"/>
<path d="M104.886 0.0503069L106.82 0C129.577 0.885761 143.341 25.4194 131.883 45.2151C120.745 64.4611 92.8532 65.0001 80.8113 46.3363C68.2163 26.8172 81.7854 0.998952 104.886 0.0503069ZM125.963 51.4586C141.8 36.6055 136.582 9.81884 116.041 2.50996C91.3658 -6.2704 68.4711 18.9531 79.4648 42.4644C87.8434 60.3827 111.398 65.1187 125.963 51.4586Z" fill="#7B7B7B"/>
<path d="M113.056 49.7643L113.087 49.0762C127.571 43.6017 130.921 24.7079 119.114 14.5459C110.026 6.72317 95.9017 8.8163 89.2347 18.6279C82.4465 28.6139 85.855 41.965 96.2451 47.8814C96.8722 48.239 97.9693 48.2479 97.3367 48.9648C97.0548 49.1625 96.7945 48.9576 96.5379 48.8462C90.5937 46.2842 86.1514 39.3616 85.2478 33.1217C82.5567 14.5567 103.718 1.88472 118.82 13.4014C131.906 23.3819 128.61 44.4947 113.056 49.7643Z" fill="#7B7B7B"/>
<path d="M115.043 41.6811C115.476 42.1356 114.598 42.5471 114.405 42.7483C111.309 45.9697 108.945 48.5049 106.473 52.2958C105.816 53.302 105.115 55.0555 104.463 55.8676C103.915 56.5486 102.704 56.9672 102.121 57.6679C100.821 55.4688 100.483 52.8474 98.2385 51.2933C99.3825 50.1901 100.369 49.29 101.663 50.7579C102.267 51.4424 102.478 52.5815 102.847 52.9947C102.993 53.16 103.042 53.2301 103.292 53.178C105.005 50.2081 107.506 47.1987 110.067 44.9097C110.964 44.1084 113.058 42.3602 114.076 41.8877C114.289 41.7889 114.907 41.5409 115.041 41.6811H115.043Z" fill="#7B7B7B"/>
<path d="M97.5121 34.6704L97.5085 34.4099C93.9192 30.1123 103.621 29.4421 102.312 33.4272C102.189 33.8027 101.663 34.0793 101.663 34.4045C101.663 34.7747 102.403 35.1304 102.535 35.6999C103.191 38.5405 99.7332 39.2232 97.7127 38.3393C96.2127 37.6817 95.8747 35.3083 97.5121 34.6722V34.6704ZM98.8224 33.5529C99.4097 34.1279 100.691 33.7308 100.371 32.6492C99.9284 31.149 97.8952 32.6492 98.8224 33.5529ZM99.2706 35.0603C98.2296 35.337 98.3724 37.4319 99.5742 37.3709C101.118 37.2936 100.758 34.6651 99.2706 35.0603Z" fill="#7B7B7B"/>
<path d="M104.441 31.5011C105.979 29.9703 109.053 30.6926 109.578 33.0103C110.225 35.8652 109.599 39.1369 105.93 38.6105C103.1 38.2045 102.929 33.0067 104.441 31.5011ZM106.5 32.1892C106.026 32.2575 105.827 32.6186 105.723 33.0444C105.506 33.9302 105.444 38.3698 107.197 37.024C107.83 36.5371 108.123 31.952 106.5 32.1874V32.1892Z" fill="#7B7B7B"/>
<path d="M113.376 30.7627C116.913 30.3943 117.544 34.6255 116.47 37.0816C115.397 39.5376 111.137 39.1873 110.725 35.8221C110.45 33.5781 110.655 31.0465 113.376 30.7627ZM113.096 32.3815C112.393 33.1019 112.37 38.3536 114.244 37.0223C115.054 36.4473 115.054 32.2826 113.863 32.1569C113.666 32.1353 113.232 32.2431 113.096 32.3815Z" fill="#7B7B7B"/>
<path d="M122.453 38.4471C121.807 38.3662 120.942 38.6896 120.465 38.1776V33.596L118.117 34.4944C117.745 32.3617 118.717 32.8612 119.832 31.979C120.707 31.2873 120.987 29.8967 122.547 31.0789C122.599 31.2226 122.453 31.3107 122.453 31.3502V38.4471Z" fill="#7B7B7B"/>
<path d="M94.0782 30.7213V38.447C93.433 38.3662 92.5673 38.6896 92.0902 38.1775V33.8655L91.7215 33.6732L90.0172 34.4943C89.0088 32.8809 90.5269 32.7462 91.2787 32.1604C92.195 31.4472 92.5583 30.4374 94.0782 30.7213Z" fill="#7B7B7B"/>
<path d="M92.0558 22.1386C96.6987 21.8817 96.9662 29.5445 92.3612 29.6577C87.7382 29.7727 87.59 22.3848 92.0558 22.1386ZM91.4956 23.0334C88.9111 23.6209 89.1895 29.0505 92.3143 28.8816C95.8204 28.6929 95.5005 22.1243 91.4956 23.0334Z" fill="#7B7B7B"/>
<path d="M119.884 22.1333C120.459 22.0884 121.502 22.3381 121.974 22.6633C122.35 22.922 123.02 23.8455 122.729 24.257C122.212 24.9882 121.591 23.5275 121.175 23.2778C119.552 22.3058 117.466 23.9138 119.033 24.8678C120.043 25.4823 122.489 25.3996 122.913 26.7597C123.974 30.1537 117.902 30.698 117.26 27.5754C118.155 26.413 118.247 27.7407 118.744 28.2114C119.801 29.2122 122.521 28.8151 122.06 27.2574C121.694 26.0213 118.202 26.3806 117.694 24.7618C117.219 23.249 118.473 22.2447 119.886 22.1333H119.884Z" fill="#7B7B7B"/>
<path d="M109.44 24.2498L108.535 24.3558C108.103 23.3461 107.43 22.8879 106.297 23.0083C105.399 23.1035 104.548 23.9893 105.28 24.7079C106.223 25.6332 109.778 25.0709 109.615 27.5557C109.435 30.3387 104.38 30.2722 103.908 27.6742C103.792 27.0364 104.542 26.9556 104.759 27.2395C104.835 29.1601 108.705 29.2948 108.705 27.579C108.705 25.8632 104.68 26.5549 104.239 24.6666C103.492 21.4721 109.109 21.2835 109.442 24.2516L109.44 24.2498Z" fill="#7B7B7B"/>
<path d="M102.573 29.4637H101.669V26.3195L101.398 26.05H98.1447L97.8736 26.3195V29.4637H96.97V22.5465C96.97 22.3686 97.5338 22.0829 97.7869 22.453L98.0417 25.254H101.499C101.978 24.9217 101.313 22.4782 101.942 22.2805C102.123 22.1871 102.571 22.4009 102.571 22.5465V29.4637H102.573Z" fill="#7B7B7B"/>
<path d="M116.669 29.4619C115.321 29.7008 115.619 28.1288 114.858 27.5808C114.314 27.1891 112.616 27.1657 112.079 27.5053C111.255 28.0263 111.67 29.8518 110.163 29.4619L112.901 22.3057C113.322 22.1961 113.819 22.2375 114.038 22.6453C114.295 23.5149 116.931 29.1996 116.668 29.4619H116.669ZM113.595 23.355C113.216 23.3029 113.302 23.3334 113.192 23.5814C113.026 23.9569 112.189 26.4453 112.332 26.5872H114.501L113.595 23.3532V23.355Z" fill="#7B7B7B"/>
<path d="M92.9938 11.3154C92.6142 11.673 89.3358 10.1871 88.6581 10.0596C88.3979 10.3021 90.3335 12.3252 90.4292 12.7025C90.4853 12.9199 90.3786 13.2936 90.1925 13.29C89.9865 13.2864 87.9027 10.4458 87.6587 10.0649C86.4279 8.15507 90.5684 10.1907 91.1775 10.3398C91.4214 10.3991 91.6582 10.4458 91.9094 10.4189L89.9232 7.81011L90.3714 7.36633C90.6642 7.90174 93.3805 10.9543 92.9938 11.3172V11.3154Z" fill="#7B7B7B"/>
<path d="M129.14 20.8396H129.682V21.3786C128.943 21.2995 128.424 21.4361 128.404 22.268L127.874 22.2787C128.279 21.0534 127.095 20.9851 126.87 20.3132C126.277 18.5488 127.789 17.6361 129.233 18.6584C130.797 16.0191 132.523 19.749 130.846 19.9466C130.056 20.0401 129.223 19.1651 129.14 20.8396ZM130.931 18.3386C130.47 18.0152 129.412 18.892 130.036 19.3178C130.752 19.8083 131.426 18.6854 130.931 18.3386ZM127.558 20.4335C128.413 21.3193 129.989 18.5291 127.974 18.8632C127.233 18.9872 127.132 19.9898 127.558 20.4335Z" fill="#7B7B7B"/>
<path d="M87.5251 45.4955C90.4258 44.9906 91.2391 49.0547 88.53 50.0878C85.1467 51.3778 84.1491 46.0848 87.5251 45.4955ZM89.1426 46.4082C87.5414 44.9295 84.7419 47.8617 86.4769 49.3278C88.2119 50.7939 90.7945 47.9318 89.1426 46.4082Z" fill="#7B7B7B"/>
<path d="M130.945 42.9388L130.428 42.6747L131.411 40.2384L130.051 39.712L129.051 42.0423C128.193 41.6793 129.66 40.0695 129.485 39.4658C129.333 39.2305 128.845 38.9394 128.599 38.8819C127.575 38.6429 127.668 41.205 126.613 41.3236C126.441 41.1242 127.652 38.3124 127.876 38.1704C128.328 37.8848 131.467 39.606 132.14 39.8845L130.949 42.9406L130.945 42.9388Z" fill="#7B7B7B"/>
<path d="M132.575 27.8449C132.666 26.7579 133.831 25.9962 132.572 25.0511C131.52 24.9792 131.751 26.325 131.623 26.9897C131.026 30.062 127.67 27.5161 129.139 25.2398C129.295 24.999 130.09 24.2354 130.224 24.884C130.3 25.2505 128.518 26.1111 129.761 27.4964C131.079 28.9643 131.055 25.4518 131.487 24.8786C133.016 22.8502 135.046 27.4551 132.575 27.8449Z" fill="#7B7B7B"/>
<path d="M85.3562 11.7216C88.7412 10.8574 89.9865 15.5359 87.2159 16.2636C83.9158 17.1295 82.8368 12.3648 85.3562 11.7216ZM85.5333 12.2534C83.632 12.6774 84.5176 15.7641 86.587 15.818C89.231 15.8863 88.3418 11.6281 85.5333 12.2534Z" fill="#7B7B7B"/>
<path d="M122.659 13.4948C123.387 13.2774 125.612 10.6687 126.154 10.7783C127.159 10.9795 125.052 12.0737 125.158 12.4851L126.427 14.1129C126.927 14.4381 128.225 12.451 128.417 13.387C128.498 13.7787 125.435 15.9563 125.071 16.5276L124.623 16.082L125.988 14.9124C126.3 14.5477 124.887 13.0079 124.676 12.954C124.121 12.8121 123.49 14.0249 122.904 14.1884L122.659 13.4948Z" fill="#7B7B7B"/>
<path d="M112.151 3.41012L109.592 3.1478C109.108 3.14421 108.9 4.31385 109.184 4.50968L111.611 4.84925V5.38646L109.072 5.10079L108.797 6.46626L111.435 7.08791L111.43 7.6359L108.179 7.18134L108.721 2.51358C108.829 2.40218 111.361 2.74355 111.699 2.87291C111.978 2.98071 112.222 3.02383 112.153 3.40832L112.151 3.41012Z" fill="#7B7B7B"/>
<path d="M79.3922 26.6177C79.8965 26.5279 80.6086 26.7938 80.867 27.2376C81.5574 28.4288 80.1387 30.2865 82.7574 29.6613C83.0574 29.7996 83.202 30.0709 82.8803 30.2776C82.3508 30.6171 80.4079 30.2255 79.7103 30.168C79.226 30.1284 78.7073 30.565 78.2573 30.0027C78.2753 28.9372 78.0115 26.8657 79.3922 26.6177ZM79.385 27.3382C78.738 27.534 78.7814 28.7755 78.7489 29.3379C80.8688 31.3071 81.2284 26.7812 79.385 27.3382Z" fill="#7B7B7B"/>
<path d="M78.7163 35.7503V35.2167C79.8423 34.8502 82.9201 35.2849 82.8207 33.5332C82.7032 31.4329 79.6254 32.757 78.3567 32.6959L78.3693 32.1731C80.1405 31.8174 83.4496 30.7843 83.4243 33.6877C83.4044 35.8024 80.2001 35.5814 78.7181 35.7503H78.7163Z" fill="#7B7B7B"/>
<path d="M133.813 30.7465L133.817 31.5999C132.404 31.9664 131.115 32.757 129.736 33.2025C129.572 33.2564 129.216 33.5744 129.141 33.145C129.038 32.5521 130.307 32.4785 130.501 32.1641C130.681 31.8676 130.674 30.3368 130.412 30.0889C130.103 29.7942 129.08 29.8607 129.141 29.1079L133.813 30.7483V30.7465ZM131.129 31.7993C131.27 31.9377 132.893 31.4723 133.114 31.1705C133.114 30.9477 131.276 30.3997 131.129 30.5417V31.7993Z" fill="#7B7B7B"/>
<path d="M115.749 3.96887L116.044 8.98519L115.587 9.15947L115.242 7.43646C115.115 7.26937 114.052 6.87769 113.821 6.85433C113.134 6.78247 113.138 7.39513 112.82 7.66643C112.471 7.96468 111.837 7.99522 112.153 7.45802C112.82 6.32611 114.266 5.31099 114.956 4.13417L115.749 3.96887ZM113.958 6.46446L114.849 6.75013L115.231 6.57405L115.401 4.67137C115.046 4.79714 113.778 6.22729 113.957 6.46625L113.958 6.46446Z" fill="#7B7B7B"/>
<path d="M97.3313 8.80012C96.6138 9.11634 96.1258 7.9988 95.8005 7.96467C95.4752 7.93053 94.1252 8.64201 93.9824 8.98518C93.8125 9.39482 94.5571 10.568 93.5378 10.5968C93.6715 9.72002 92.7372 6.04582 93.0751 5.55712C93.2017 5.37566 93.4149 5.35589 93.6191 5.37925C93.8234 5.40261 96.3554 7.55862 96.7024 7.89639C96.8415 8.03294 97.5247 8.63123 97.3295 8.79832L97.3313 8.80012ZM95.1626 7.72212C95.3433 7.47777 93.724 5.90388 93.5378 6.1087L93.8017 8.09043C94.0944 8.57913 94.718 7.63408 95.1626 7.72212Z" fill="#7B7B7B"/>
<path d="M103.295 2.33383H103.838L104.062 4.08738C105.865 4.73778 106.662 4.27603 106.37 2.33203H106.912V7.00519H106.37L106.368 4.85097C104.067 4.45211 103.612 4.5096 103.838 7.00698H103.295V2.33383Z" fill="#7B7B7B"/>
<path d="M83.9575 22.6364L83.7822 23.2688C83.4569 23.4808 82.9328 23.1807 82.5008 23.6119C82.2008 23.912 81.8611 25.1283 82.0526 25.5092C82.1014 25.6081 83.8003 26.6519 82.9599 26.7687C82.6996 26.8046 79.0056 24.257 78.9224 23.9533C78.8158 23.6317 78.9206 23.5203 79.2062 23.3928C80.2454 22.9274 82.7394 23.0729 83.9557 22.6364H83.9575ZM81.6062 24.972C82.0382 23.346 81.6605 23.5131 80.249 23.7108C79.9815 23.7485 79.799 23.7036 79.6237 23.9821C79.9291 24.2102 81.3496 25.1894 81.6062 24.9702V24.972Z" fill="#7B7B7B"/>
<path d="M82.6924 42.5794C82.6129 43.5191 82.228 44.085 83.0467 44.8306C84.6353 46.2788 87.5107 43.3196 85.6889 42.0242C85.2299 41.6972 83.4985 42.0656 84.4365 41.16C89.1065 41.4152 85.9148 47.6766 82.7828 45.2708C81.1815 44.0401 82.2912 42.1213 82.6906 42.5776L82.6924 42.5794Z" fill="#7B7B7B"/>
<path d="M82.3309 37.008C82.1647 35.7755 83.6394 36.6433 84.0569 37.1805C85.6563 39.2466 83.09 41.3757 80.8761 40.7019C79.6471 40.3282 79.067 37.9728 80.2562 37.1894L80.7062 37.4625C79.5333 39.0903 80.3465 40.6786 82.4322 40.0713C84.5394 39.4568 84.5521 37.1769 82.3328 37.008H82.3309Z" fill="#7B7B7B"/>
<path d="M132.732 35.4142L131.478 35.2903L131.037 37.0097L130.405 37.1875L130.688 35.0208C130.453 34.7045 128.646 34.8824 128.778 34.2284C128.852 33.8583 129.262 34.0488 129.465 34.0721C129.928 34.1224 133.282 34.8644 133.401 35.0261C133.466 35.4879 132.984 38.0733 132.662 38.0859C132.033 37.5756 133.027 35.8796 132.731 35.416L132.732 35.4142Z" fill="#7B7B7B"/>
<path d="M81.4273 17.7871L81.3351 19.4077L84.6767 20.7552C85.0292 20.9187 84.778 21.3445 84.5864 21.3786C84.1526 21.4577 81.6315 20.0617 80.9772 20.015C80.1549 19.9557 80.6664 21.8763 79.6272 21.1109L80.8706 17.8913L81.4273 17.7853V17.7871Z" fill="#7B7B7B"/>
<path d="M127.152 48.5067C126.197 48.8822 125.263 48.1887 124.262 48.3306C124.13 48.4474 125.339 50.7759 124.533 51.1999C124.229 51.1999 123.897 48.7061 123.701 48.257C123.441 47.6587 122.259 46.8484 122.277 46.622C122.339 45.8764 123.694 47.2544 124.012 47.4089C124.33 47.5635 124.621 47.6533 124.947 47.7377C125.306 47.8294 127.574 47.9462 127.152 48.5085V48.5067Z" fill="#7B7B7B"/>
<path d="M128.202 47.2113C127.146 47.8221 128.102 46.2123 128.147 46.0075C128.296 45.3427 125.715 44.1659 125.16 43.5694C124.954 43.3484 125.048 43.1598 125.258 43.1166C126.026 42.9603 128.234 45.4703 128.957 45.0103C129.026 44.9672 129.901 43.476 130.043 44.2881C130.074 44.457 128.35 47.1214 128.202 47.2095V47.2113Z" fill="#7B7B7B"/>
<path d="M124.802 9.87808C124.086 10.0416 123.94 9.07137 123.298 9.17737C122.865 9.29056 121.473 11.8041 120.83 12.1293C120.512 12.2892 120.484 12.1599 120.286 11.9443L122.798 8.68329L122.736 8.44074C122.693 8.37426 121.197 7.53341 122.006 7.36632C122.339 7.29805 122.436 7.4849 122.644 7.62864C122.98 7.85861 124.296 8.90069 124.536 9.1612C124.764 9.40555 124.869 9.51335 124.804 9.88167L124.802 9.87808Z" fill="#7B7B7B"/>
<path d="M118.928 5.39185L119.344 5.83562C119.024 6.52016 117.506 8.65102 117.564 9.24931C117.618 9.80269 118.829 10.092 119.205 10.5052C119.402 10.7208 119.317 10.9292 119.106 10.9597C118.959 10.9795 116.711 9.80089 116.667 9.43976L118.928 5.39364V5.39185Z" fill="#7B7B7B"/>
<path d="M97.3278 3.77304L98.4338 7.52809L100.673 7.00346L100.749 7.52629L98.0489 8.18747L96.791 3.77124L97.3278 3.77304Z" fill="#7B7B7B"/>
<path d="M82.011 16.4935C81.9585 16.4037 81.9369 16.0264 81.9712 15.9905C82.17 15.782 85.387 17.6021 85.7556 17.886C86.3448 18.3423 86.09 18.8166 85.5858 18.5956C85.2315 18.4393 82.114 16.6714 82.011 16.4935Z" fill="#7B7B7B"/>
<path d="M185.306 19.5483C186.259 24.6351 190.78 28.1129 195.468 29.826C194.835 31.8232 192.552 33.5377 190.455 33.7446C185.959 34.1867 180.749 33.4187 176.176 33.7446C174.491 33.5404 173.215 32.2815 172.398 30.9064H185.924C186.301 30.9064 187.056 30.1019 185.79 29.9572C181.508 29.4691 176.328 30.3547 171.95 29.9274C170.479 29.5394 169.266 28.4157 168.553 27.1204H184.002C184.316 27.1204 184.79 26.5525 184.173 26.2753L167.83 26.1414C166.641 25.9427 165.344 24.3688 164.845 23.3344H182.079C182.188 23.3344 182.77 22.7759 182.332 22.5109L164.123 22.3554C162.728 21.9755 161.603 20.818 161 19.5483H185.306Z" fill="#7B7B7B"/>
<path d="M239 19.5483C238.397 20.818 237.273 21.9755 235.877 22.3554L217.668 22.5109C217.23 22.7746 217.811 23.3344 217.921 23.3344H235.155C234.698 24.3701 233.334 25.9467 232.17 26.1414L215.827 26.2753C215.21 26.5525 215.684 27.1204 215.998 27.1204H231.447C230.735 28.4157 229.521 29.5394 228.05 29.9274C223.672 30.3547 218.492 29.4691 214.21 29.9572C212.944 30.1019 213.699 30.9064 214.076 30.9064H227.602C226.832 32.2477 225.456 33.5823 223.824 33.7446C219.253 33.4187 214.041 34.1867 209.545 33.7446C207.449 33.539 205.166 31.8245 204.532 29.826C209.228 28.1331 213.745 24.6297 214.694 19.5483H239Z" fill="#7B7B7B"/>
<path d="M211.672 52L219.563 36.8464L224.567 36.8708L227.739 52.0013H222.933L222.796 50.2435H217.646L216.685 52.0013H211.672V52ZM218.813 47.1322H222.109L221.218 41.5871L218.813 47.1322Z" fill="#7B7B7B"/>
<path d="M180.5 52L188.391 36.8464L193.395 36.8708L196.567 52.0013H191.761L191.623 50.2435H186.474L185.512 52.0013H180.5V52ZM187.641 47.1322H190.937L190.045 41.5871L187.641 47.1322Z" fill="#7B7B7B"/>
<path d="M213.32 36.7207L212.627 40.5L208.305 40.6392L206.592 52H201.511L203.158 40.5067H198.764L199.451 36.7207H213.32Z" fill="#7B7B7B"/>
<path d="M180.363 36.856L177.204 52H172.123L175.144 36.856H180.363Z" fill="#7B7B7B"/>
<path d="M193.134 16.0328C193.307 18.1327 193.816 20.1799 194.644 22.1162C193.468 22.5353 192.35 23.179 191.417 24.0038C189.243 21.8579 187.92 19.09 187.778 16.0328H193.134Z" fill="#7B7B7B"/>
<path d="M212.222 16.0328C212.106 19.0617 210.741 21.889 208.583 24.0038L205.482 22.035C206.221 20.0974 206.77 18.1151 206.866 16.0328H212.222Z" fill="#7B7B7B"/>
<path d="M187.778 15.0863C187.969 12.0913 189.259 9.33968 191.417 7.25061C192.37 8.04703 193.459 8.73122 194.644 9.13956C193.818 11.0542 193.311 13.0054 193.134 15.0877H187.778V15.0863Z" fill="#7B7B7B"/>
<path d="M212.222 15.0863H206.866C206.765 13.0405 206.156 11.134 205.482 9.22206L208.583 7.24927C210.746 9.3113 212.083 12.1048 212.222 15.0863Z" fill="#7B7B7B"/>
<path d="M199.588 16.0328V20.9006C198.18 20.933 196.781 21.2224 195.471 21.7132C194.696 19.927 194.144 17.9962 194.232 16.0328H199.588Z" fill="#7B7B7B"/>
<path d="M199.588 10.3538V15.0863H194.232C194.14 13.1689 194.724 11.2881 195.474 9.54382L199.588 10.3538Z" fill="#7B7B7B"/>
<path d="M205.905 16.0328C205.737 16.9482 205.729 17.7771 205.537 18.7128C205.323 19.754 204.926 20.7343 204.53 21.7132C203.278 21.1981 201.903 20.9804 200.551 20.9006V16.0328H205.906H205.905Z" fill="#7B7B7B"/>
<path d="M205.768 15.0863H200.549V10.3538L204.537 9.5979C205.31 11.3219 205.893 13.1797 205.768 15.0863Z" fill="#7B7B7B"/>
<path d="M198.627 4C197.236 5.34133 195.975 6.77867 194.99 8.44722C194.006 7.92529 192.937 7.48044 192.175 6.63534C193.991 5.14527 196.288 4.28125 198.627 4Z" fill="#7B7B7B"/>
<path d="M201.373 4C203.712 4.28125 206.009 5.14527 207.825 6.63534C207.063 7.48179 205.994 7.92529 205.01 8.44722C204.007 6.79895 202.81 5.30077 201.373 4Z" fill="#7B7B7B"/>
<path d="M198.627 27.2543C196.641 26.9109 194.535 26.3051 192.872 25.1476C192.704 25.03 192.034 24.6163 192.173 24.4188L194.99 22.8152C195.998 24.4743 197.248 25.8927 198.625 27.2543H198.627Z" fill="#7B7B7B"/>
<path d="M201.373 27.2543C202.763 25.8778 203.993 24.4892 205.01 22.8112L207.828 24.4851C207.881 24.6974 206.684 25.414 206.443 25.5547C204.872 26.4674 203.165 26.9569 201.373 27.2543Z" fill="#7B7B7B"/>
<path d="M199.588 21.847V26.7148C198.646 26.1604 196.182 23.5643 196.015 22.5921C195.964 22.3 196.084 22.4298 196.211 22.3771C197.175 21.9823 198.549 21.8673 199.588 21.8484V21.847Z" fill="#7B7B7B"/>
<path d="M199.588 9.40729C199.419 9.57226 196.357 9.05573 196.02 8.6555C195.919 8.22146 198.82 4.7275 199.588 4.53955V9.40729Z" fill="#7B7B7B"/>
<path d="M200.549 4.53955C201.332 5.09664 204.085 7.98348 203.984 8.79747L200.549 9.40729V4.53955Z" fill="#7B7B7B"/>
<path d="M200.549 21.8471C200.717 21.6835 203.388 22.223 203.79 22.3758C203.926 22.4272 204.035 22.3068 203.985 22.5921C203.8 23.6522 201.42 25.9684 200.549 26.7148V21.8471Z" fill="#7B7B7B"/>
<path d="M288.5 62L256 32.9996L288.5 4L288.586 4.07633L321 32.9996L288.5 61.9993V62ZM256.342 32.9996L288.5 61.694L320.658 32.9996L288.5 4.3053L256.342 32.9996Z" fill="#5E5E5E"/>
<path d="M312.434 40.8378H264.567L264.531 40.8053L256 32.9927L262.839 26.7297H314.161L321 32.9927L312.433 40.8378H312.434ZM264.667 40.6161H312.333L320.658 32.9927L314.061 26.9514H262.94L256.342 32.9927L264.667 40.6161Z" fill="#5E5E5E"/>
<path d="M275.689 32.4959C275.18 29.1202 272.528 28.7804 269.302 28.7393C267.752 28.7191 266.199 28.7703 264.652 28.6997L264.663 37.5385C266.617 37.4961 268.592 37.6156 270.546 37.5479C274.02 37.4269 276.182 35.7758 275.689 32.4966V32.4959ZM272.776 33.4694C272.704 34.4754 272.162 35.1234 271.076 35.4115C270.924 35.4511 270.288 35.5872 270.176 35.5872H267.434V30.6936C267.937 30.6648 268.428 30.6151 268.936 30.6259C271.167 30.6713 272.942 31.1443 272.775 33.4702L272.776 33.4694Z" fill="#5E5E5E"/>
<path d="M287.763 31.5411H284.802C284.58 30.9838 284.395 30.6266 283.74 30.4005C281.839 29.7438 279.798 30.7181 279.582 32.5607C279.2 35.8111 282.006 36.4606 284.984 35.7175V34.2817H282.498V32.6508H287.653C287.675 32.6508 287.709 32.5679 287.762 32.5852V37.0547C287.389 37.2333 286.888 37.3154 286.46 37.3931C283.143 37.9958 277.525 38.1319 276.741 34.2961C276.123 31.2747 277.883 29.0454 281.292 28.6702C283.737 28.4016 287.641 28.6832 287.763 31.5404V31.5411Z" fill="#5E5E5E"/>
<path d="M297.229 28.8027L296.938 28.694C296.166 28.7459 295.374 28.761 294.597 28.7394C294.328 28.7314 293.968 28.5471 293.766 28.7761L288.713 37.5451H291.711C291.821 37.2887 292.455 35.85 292.637 35.7939C294.423 35.7939 296.24 35.7406 298.009 35.8227L298.804 37.5451H302.022L297.228 28.8035L297.229 28.8027ZM293.54 34.0203L295.404 30.7577L297.05 34.0203H293.54Z" fill="#5E5E5E"/>
<path d="M309.372 31.6066C309.345 31.6066 309.273 31.7053 309.187 31.6462C308.959 30.9859 308.487 30.5165 307.69 30.4315C306.1 30.2616 304.861 30.677 304.528 32.1791C304.328 33.0857 304.443 34.6352 305.2 35.3279C306.208 36.2504 309.065 36.097 309.163 34.4732C309.544 34.5078 311.899 34.4027 312.01 34.5409C312.1 34.654 311.784 35.6397 311.689 35.8277C310.495 38.1888 305.467 38.1009 303.388 36.8156C301.04 35.364 300.964 31.3575 303.085 29.7165C305.378 27.9429 311.964 27.9689 311.968 31.6714C311.889 31.6959 311.808 31.6066 311.785 31.6066C310.982 31.6066 310.175 31.5915 309.372 31.6066H309.372Z" fill="#5E5E5E"/>
</svg>
