<svg width="1565" height="1867" viewBox="0 0 1565 1867" fill="none" xmlns="http://www.w3.org/2000/svg">
<path fill-rule="evenodd" clip-rule="evenodd" d="M782.248 1834.35C805.415 1806.58 814.657 1767 818.014 1722.37C842.01 1477.77 866.006 1232.76 890.001 988.156V631.99C882.832 529.252 882.417 25.7547 782.248 0.515625C682.038 25.7547 681.624 529.252 674.495 631.99V988.156C698.491 1232.76 722.487 1477.77 746.483 1722.37C749.84 1767 759.123 1806.58 782.248 1834.35Z" fill="#D8D9D9" stroke="black" stroke-miterlimit="10"/>
<path fill-rule="evenodd" clip-rule="evenodd" d="M853.407 1361.15L890.043 988.157V631.991C886.686 581.886 884.572 436.668 871.932 297.75H692.606C679.966 436.668 677.852 581.928 674.495 631.991V988.157L711.131 1361.15H853.407Z" fill="#E0E0E0" stroke="black" stroke-miterlimit="10"/>
<path fill-rule="evenodd" clip-rule="evenodd" d="M674.496 632.033L0.5 1085.84V1261.81L523.766 1002.91L674.496 988.157V632.033Z" fill="#EBEBEB" stroke="black" stroke-miterlimit="10"/>
<path fill-rule="evenodd" clip-rule="evenodd" d="M890.044 632.033L1564.04 1085.84V1261.81L1040.73 1002.91L890.044 988.157V632.033Z" fill="#EBEBEB" stroke="black" stroke-miterlimit="10"/>
<path fill-rule="evenodd" clip-rule="evenodd" d="M449.251 668.214H520.824C532.594 668.214 541.877 677.456 541.877 689.267V721.262L428.198 798.305V689.267C428.198 677.497 437.44 668.214 449.251 668.214Z" fill="#C3C4C4" stroke="black" stroke-miterlimit="10"/>
<path fill-rule="evenodd" clip-rule="evenodd" d="M1115.25 668.214H1043.67C1031.9 668.214 1022.62 677.456 1022.62 689.267V721.262L1136.3 798.305V689.267C1136.3 677.497 1127.06 668.214 1115.25 668.214Z" fill="#C3C4C4" stroke="black" stroke-miterlimit="10"/>
<path fill-rule="evenodd" clip-rule="evenodd" d="M449.251 668.214H520.824C532.594 668.214 541.877 677.456 541.877 689.267V698.551H428.198V689.267C428.198 677.497 437.44 668.214 449.251 668.214Z" fill="#AEAFB0" stroke="black" stroke-miterlimit="10"/>
<path fill-rule="evenodd" clip-rule="evenodd" d="M1115.25 668.214H1043.67C1031.9 668.214 1022.62 677.456 1022.62 689.267V698.551H1136.3V689.267C1136.3 677.497 1127.06 668.214 1115.25 668.214Z" fill="#AEAFB0" stroke="black" stroke-miterlimit="10"/>
<path fill-rule="evenodd" clip-rule="evenodd" d="M174.771 856.407H246.758C258.114 856.407 267.811 865.691 267.811 877.461V909.455L153.718 986.498V877.461C153.718 865.691 163.415 856.407 174.771 856.407Z" fill="#C3C4C4" stroke="black" stroke-miterlimit="10"/>
<path fill-rule="evenodd" clip-rule="evenodd" d="M1389.73 856.407H1317.74C1306.38 856.407 1296.69 865.691 1296.69 877.461V909.455L1410.78 986.498V877.461C1410.78 865.691 1401.08 856.407 1389.73 856.407Z" fill="#C3C4C4" stroke="black" stroke-miterlimit="10"/>
<path fill-rule="evenodd" clip-rule="evenodd" d="M174.771 856.407H246.758C258.114 856.407 267.811 865.691 267.811 877.461V886.702H153.718V877.461C153.718 865.691 163.415 856.407 174.771 856.407Z" fill="#AEAFB0" stroke="black" stroke-miterlimit="10"/>
<path fill-rule="evenodd" clip-rule="evenodd" d="M1389.73 856.407H1317.74C1306.38 856.407 1296.69 865.691 1296.69 877.461V886.702H1410.78V877.461C1410.78 865.691 1401.08 856.407 1389.73 856.407Z" fill="#AEAFB0" stroke="black" stroke-miterlimit="10"/>
<path fill-rule="evenodd" clip-rule="evenodd" d="M728.373 1536.29L464.833 1692.9V1791.42L747.727 1737.54L728.373 1536.29Z" fill="#FEFEFE" stroke="black" stroke-miterlimit="10"/>
<path fill-rule="evenodd" clip-rule="evenodd" d="M728.373 1536.29L464.833 1692.9V1791.42L492.227 1785.94V1738.78L737.656 1632.69L728.373 1536.29Z" fill="#EBEBEB" stroke="black" stroke-miterlimit="10"/>
<path fill-rule="evenodd" clip-rule="evenodd" d="M836.167 1536.29L1099.71 1692.9V1791.42L816.771 1737.54L836.167 1536.29Z" fill="#FEFEFE" stroke="black" stroke-miterlimit="10"/>
<path fill-rule="evenodd" clip-rule="evenodd" d="M674.496 632.033V788.192L0.5 1173.82V1085.84L674.496 632.033Z" fill="#D8D9D9" stroke="black" stroke-miterlimit="10"/>
<path fill-rule="evenodd" clip-rule="evenodd" d="M890.044 632.033V788.192L1564.04 1173.82V1085.84L890.044 632.033Z" fill="#D8D9D9" stroke="black" stroke-miterlimit="10"/>
<path fill-rule="evenodd" clip-rule="evenodd" d="M782.249 1520.71C789.004 1520.71 794.019 1526.18 794.019 1532.93V1853.29C794.019 1860.04 788.963 1865.52 782.249 1865.52C775.494 1865.52 770.479 1860.04 770.479 1853.29V1532.93C770.479 1526.22 775.535 1520.71 782.249 1520.71Z" fill="#EBEBEB" stroke="black" stroke-miterlimit="10"/>
<path fill-rule="evenodd" clip-rule="evenodd" d="M836.167 1536.29L1099.71 1692.9V1791.42L1072.31 1785.94V1738.78L826.883 1632.69L836.167 1536.29Z" fill="#EBEBEB" stroke="black" stroke-miterlimit="10"/>
</svg>
