<svg width="1585" height="527" viewBox="0 0 1585 527" fill="none" xmlns="http://www.w3.org/2000/svg">
<path d="M1.60889 523.982C5.62405 518.545 8.99052 492.007 43.8204 507.671C78.6533 523.334 113.225 514.921 113.225 508.965C113.225 503.008 85.7737 486.957 85.7737 486.957C85.7737 486.957 121.381 461.455 119.958 457.183C118.534 452.911 6.65705 320.351 10.5431 282.68L160.488 282.293L127.856 193.357H140.676V180.153H103.384V191.028H116.979L81.6294 276.469H90.1762L115.814 223.264L115.036 276.081L128.631 275.694L129.409 222.877L153.493 287.733L264.98 346.569L828.05 345.598L825.136 201.708L666.063 203.457L665.479 258.217L816.395 258.801L815.811 315.307H670.721V338.608H680.043V267.537H550.687V318.218H661.981V336.275H555.932V259.963H432.984V201.128H553.599V248.895H441.14V336.859H315.281C315.281 336.859 314.989 317.053 315.281 317.053H425.99V307.734H313.531C313.531 307.734 311.493 259.382 313.531 259.382H421.91V205.787H396.273V122.774L610.703 111.027L610.119 122.873L620.541 123.066C620.541 123.066 626.109 135.819 617.045 139.636C607.982 143.454 611.09 127.661 606.555 128.116C602.024 128.568 600.21 143.586 613.417 144.945C626.625 146.303 633.942 132.841 630.64 125.654C627.338 118.468 625.915 119.504 626.238 116.981C626.56 114.457 626.044 94.1312 626.044 94.1312L614.521 93.7439L399.39 3.83688L368.572 2.02344L149.61 92.3823L135.238 95.2961C135.238 95.2961 135.723 116.851 136.209 116.851C136.695 116.851 141.841 118.016 141.841 118.016L142.035 124.812C142.035 124.812 134.072 123.746 135.819 132.773C137.568 141.803 145.432 147.529 153.106 144.425C160.777 141.318 163.691 131.805 159.904 131.414C156.116 131.027 146.404 142.191 144.559 136.268C142.715 130.345 145.724 127.142 145.724 127.142C145.724 127.142 153.008 127.529 153.881 126.948C154.754 126.364 155.24 110.443 155.24 110.443L365.203 118.597L364.815 73.1597H377.537V27.6238H368.216V8.98215H397.739V26.2652H388.805V72.4804H401.428V89.1795H533.213V99.9557H608.572V105.587L524.989 108.436V93.9375L395.243 97.4322L356.139 88.6293L238.371 89.5668L236.883 101.314L155.436 99.3717L155.695 104.422L358.793 111.411V202.286H297.806V360.738H1182.91V237.821H935.264V278.599H1164.26V295.491H934.099V346.757H1205.63L1220.78 322.871H1436.38V268.695H1445.5V254.713H1402.77V159.953H1388.21V120.727H1355.38V156.652H1348.97V120.534H1331.68V158.982H1324.11V121.311H1307.21V157.039H1297.69V119.95H1279.82V103.444H1298.66V29.6616L1289 20.0011L1320.9 20.1456L1311.58 29.4649C1311.58 29.4649 1307.99 102.476 1311.58 102.476H1330.81V116.068H1267.59V156.262H1233.21V227.527H1266.62V201.896H1279.44V229.082H1303.52V201.509H1316.34V230.634H1341.2V202.674H1350.14V230.634H1375.39V202.674H1384.32V240.734H1230.49V274.523H1374.22V283.068H1198.64V317.631H1425.5V331.613H1448.81C1448.81 331.613 1441.23 430.645 1411.71 471.036C1411.71 471.036 261.094 485.405 214.48 470.649C167.866 455.892 127.659 458.028 127.659 458.028C127.659 458.028 104.644 488.903 109.013 491.817C113.382 494.731 122.706 515.118 143.391 513.953C164.076 512.788 1412.22 512.853 1412.22 512.853C1412.22 512.853 1422.32 499.778 1422.32 493.695C1422.32 487.612 1408.21 474.537 1408.21 474.537C1408.21 474.537 1401.22 477.838 1401.22 478.809C1401.22 479.781 1412.09 495.899 1412.09 495.899L1406.27 509.103C1406.27 509.103 1448.61 534.347 1503.38 515.705C1558.16 497.064 1568.64 507.551 1582.63 525.024" fill="white"/>
<path d="M1.60889 523.982C5.62405 518.545 8.99052 492.007 43.8204 507.671C78.6533 523.334 113.225 514.921 113.225 508.965C113.225 503.008 85.7737 486.957 85.7737 486.957C85.7737 486.957 121.381 461.455 119.958 457.183C118.534 452.911 6.65705 320.351 10.5431 282.68L160.488 282.293L127.856 193.357H140.676V180.153H103.384V191.028H116.979L81.6294 276.469H90.1762L115.814 223.264L115.036 276.081L128.631 275.694L129.409 222.877L153.493 287.733L264.98 346.569L828.05 345.598L825.136 201.708L666.063 203.457L665.479 258.217L816.395 258.801L815.811 315.307H670.721V338.608H680.043V267.537H550.687V318.218H661.981V336.275H555.932V259.963H432.984V201.128H553.599V248.895H441.14V336.859H315.281C315.281 336.859 314.989 317.053 315.281 317.053H425.99V307.734H313.531C313.531 307.734 311.493 259.382 313.531 259.382H421.91V205.787H396.273V122.774L610.703 111.027L610.119 122.873L620.541 123.066C620.541 123.066 626.109 135.819 617.045 139.636C607.982 143.454 611.09 127.661 606.555 128.116C602.024 128.568 600.21 143.586 613.417 144.945C626.625 146.303 633.942 132.841 630.64 125.654C627.338 118.468 625.915 119.504 626.238 116.981C626.561 114.457 626.044 94.1312 626.044 94.1312L614.521 93.7439L399.39 3.83688L368.572 2.02344L149.61 92.3823L135.238 95.2961C135.238 95.2961 135.723 116.851 136.209 116.851C136.695 116.851 141.841 118.016 141.841 118.016L142.035 124.812C142.035 124.812 134.072 123.746 135.819 132.773C137.568 141.803 145.432 147.529 153.106 144.425C160.777 141.318 163.691 131.805 159.904 131.414C156.116 131.027 146.404 142.191 144.559 136.268C142.715 130.345 145.724 127.142 145.724 127.142C145.724 127.142 153.008 127.529 153.881 126.948C154.754 126.364 155.24 110.443 155.24 110.443L365.203 118.597L364.815 73.1597H377.537V27.6238H368.216V8.98215H397.739V26.2652H388.805V72.4804H401.428V89.1795H533.213V99.9557H608.572V105.587L524.989 108.436V93.9375L395.243 97.4322L356.139 88.6293L238.371 89.5668L236.883 101.314L155.436 99.3717L155.695 104.422L358.793 111.411V202.286H297.806V360.739H1182.91V237.821H935.264V278.599H1164.26V295.491H934.099V346.757H1205.63L1220.78 322.871H1436.38V268.695H1445.5V254.713H1402.77V159.953H1388.21V120.727H1355.38V156.652H1348.97V120.534H1331.68V158.982H1324.11V121.311H1307.21V157.039H1297.69V119.95H1279.82V103.444H1298.66V29.6616L1289 20.0011L1320.9 20.1456L1311.58 29.4649C1311.58 29.4649 1307.99 102.476 1311.58 102.476H1330.81V116.068H1267.59V156.262H1233.21V227.527H1266.62V201.896H1279.44V229.082H1303.52V201.509H1316.34V230.634H1341.2V202.674H1350.14V230.634H1375.39V202.674H1384.32V240.734H1230.49V274.523H1374.22V283.068H1198.64V317.631H1425.5V331.613H1448.81C1448.81 331.613 1441.23 430.645 1411.71 471.036C1411.71 471.036 261.094 485.405 214.48 470.649C167.866 455.892 127.659 458.028 127.659 458.028C127.659 458.028 104.644 488.903 109.013 491.817C113.382 494.731 122.706 515.118 143.391 513.953C164.076 512.788 1412.22 512.853 1412.22 512.853C1412.22 512.853 1422.32 499.778 1422.32 493.695C1422.32 487.612 1408.21 474.537 1408.21 474.537C1408.21 474.537 1401.22 477.838 1401.22 478.809C1401.22 479.781 1412.09 495.899 1412.09 495.899L1406.27 509.103C1406.27 509.103 1448.61 534.347 1503.38 515.705C1558.16 497.064 1568.64 507.551 1582.63 525.024" stroke="black" stroke-width="4" stroke-miterlimit="10"/>
</svg>
