<svg width="1375" height="386" viewBox="0 0 1375 386" fill="none" xmlns="http://www.w3.org/2000/svg">
<path d="M166.693 331.95C166.693 360.944 143.191 384.462 114.188 384.462C85.1857 384.462 61.6624 360.944 61.6624 331.95C61.6624 302.955 85.1857 279.438 114.188 279.438C143.191 279.438 166.693 302.955 166.693 331.95Z" fill="white" stroke="black" stroke-width="2" stroke-miterlimit="10"/>
<path d="M149.782 331.949C149.782 351.616 133.839 367.534 114.188 367.534C94.5375 367.534 78.5737 351.595 78.5737 331.949C78.5737 312.304 94.5169 296.344 114.188 296.344C133.86 296.344 149.782 312.283 149.782 331.949Z" fill="white" stroke="black" stroke-width="2" stroke-miterlimit="10"/>
<path d="M142.861 331.949C142.861 347.785 130.008 360.635 114.168 360.635C98.3275 360.635 85.4741 347.785 85.4741 331.949C85.4741 316.113 98.3275 303.263 114.168 303.263C130.008 303.263 142.861 316.113 142.861 331.949Z" fill="white" stroke="black" stroke-width="2" stroke-miterlimit="10"/>
<path d="M130.77 331.949C130.77 341.113 123.354 348.527 114.188 348.527C105.022 348.527 97.6064 341.113 97.6064 331.949C97.6064 322.786 105.022 315.372 114.188 315.372C123.354 315.372 130.77 322.786 130.77 331.949Z" fill="white" stroke="black" stroke-width="2" stroke-miterlimit="10"/>
<path d="M6.17017 286.48C6.17017 290.949 9.77488 294.552 14.2447 294.552H17.6435V267.576H14.2447C9.79548 267.576 6.17017 271.159 6.17017 275.628V286.48Z" fill="white" stroke="black" stroke-width="2" stroke-miterlimit="10"/>
<path d="M24.0908 330.817C24.0908 333.041 22.2781 334.853 20.0535 334.853H5.40805C2.97744 334.853 1 332.876 1 330.446V302.09C1 299.66 2.97744 297.683 5.40805 297.683H20.0535C22.2781 297.683 24.0908 299.495 24.0908 301.719V330.796V330.817Z" fill="white" stroke="black" stroke-width="2" stroke-miterlimit="10"/>
<path d="M636.728 251.142H359.515V268.09H636.728V251.142Z" fill="white" stroke="black" stroke-width="2" stroke-miterlimit="10"/>
<path d="M1274.87 250.051H868.356V268.09H1274.87V250.051Z" fill="white" stroke="black" stroke-width="2" stroke-miterlimit="10"/>
<path d="M683.568 293.584H696.175C700.624 293.584 704.249 297.209 704.249 301.657V303.325C704.249 307.773 700.624 311.397 696.175 311.397H683.568V293.584Z" fill="white" stroke="black" stroke-width="2" stroke-miterlimit="10"/>
<path d="M686.658 266.648H249.561V332.793H394.099C394.099 332.793 394.099 332.608 394.099 332.525C394.099 298.65 421.557 271.199 455.441 271.199C486.689 271.199 515.733 294.943 516.783 332.793H536.599C536.599 332.793 536.599 332.608 536.599 332.525C536.599 298.876 564.077 271.199 597.941 271.199C629.147 271.199 658.212 294.861 659.283 332.875H686.74C691.21 332.875 694.815 329.251 694.815 324.803V274.741C694.815 270.273 691.169 266.669 686.72 266.669L686.658 266.648Z" fill="white" stroke="black" stroke-width="2" stroke-miterlimit="10"/>
<path d="M125.641 114.302H238.19V68.2565C238.19 63.9113 234.482 60.4723 230.136 60.8224L184.902 66.6914C179.732 67.1033 174.891 69.4509 171.369 73.2605L125.641 114.302Z" fill="white" stroke="black" stroke-width="2" stroke-miterlimit="10"/>
<path d="M173.285 315.393H172.935C174.541 320.911 175.365 326.719 175.324 332.649H249.396V122.478C249.396 118.009 245.791 114.405 241.321 114.405H60.3645C55.5445 114.405 51.1982 117.474 49.5915 122.025L23.8024 195.027L17.6641 210.41V334.256H51.5484C51.6926 328.325 52.2281 320.005 53.67 314.281C59.7259 290.063 86.2155 271.056 114.044 271.056C141.872 271.056 165.705 290.31 172.955 315.393H173.305H173.285Z" fill="white" stroke="black" stroke-width="2" stroke-miterlimit="10"/>
<path d="M162.12 147.951C162.12 143.482 158.516 139.878 154.046 139.878H73.0118C68.1711 139.878 63.8249 142.926 62.177 147.477L46.3781 191.052C45.0392 194.738 47.7581 198.651 51.6924 198.651H154.046C158.516 198.651 162.12 195.026 162.12 190.578V147.971V147.951Z" fill="white" stroke="black" stroke-width="2" stroke-miterlimit="10"/>
<path d="M162.471 212.736C162.471 216.402 159.484 219.388 155.817 219.388H142.511C138.844 219.388 135.858 216.422 135.858 212.736C135.858 209.05 138.824 206.084 142.511 206.084H155.817C159.484 206.084 162.471 209.07 162.471 212.736Z" fill="white" stroke="black" stroke-width="2" stroke-miterlimit="10"/>
<path d="M40.7136 306.187H38.386C33.154 306.187 28.8901 301.924 28.8901 296.693L28.9725 207.691L52.7842 139.219C54.5763 134.091 59.4169 130.632 64.8549 130.632H164.757C169.989 130.632 174.253 134.895 174.253 140.125V250.792C174.253 256.022 169.968 260.285 164.695 260.285H111.51C86.0918 260.285 61.2502 276.059 52.4341 297.785C50.3742 302.871 45.7602 306.166 40.7136 306.166V306.187Z" stroke="black" stroke-width="2" stroke-miterlimit="10"/>
<path d="M194.975 139.878H227.747C232.196 139.878 235.821 143.503 235.821 147.951V190.558C235.821 195.006 232.196 198.63 227.747 198.63H194.995C190.546 198.63 186.921 195.006 186.921 190.558V147.951C186.921 143.503 190.546 139.878 194.995 139.878H194.975Z" fill="white" stroke="black" stroke-width="2" stroke-miterlimit="10"/>
<path d="M275.823 1H1365.19C1369.93 1 1373.78 4.85088 1373.78 9.58726V243.688C1373.78 248.424 1369.93 252.275 1365.19 252.275H275.823C271.086 252.275 267.234 248.424 267.234 243.688V9.58726C267.234 4.85088 271.086 1 275.823 1Z" fill="white" stroke="black" stroke-width="2" stroke-miterlimit="10"/>
<path d="M286.679 12.6963H1354.33C1358.64 12.6963 1362.12 16.1765 1362.12 20.4804V232.773C1362.12 237.077 1358.64 240.557 1354.33 240.557H286.679C282.394 240.557 278.893 237.077 278.893 232.773V20.4804C278.893 16.1765 282.374 12.6963 286.679 12.6963Z" fill="white" stroke="black" stroke-width="2" stroke-miterlimit="10"/>
<path d="M336.486 205.735C336.486 210.183 332.86 213.808 328.411 213.808C323.962 213.808 320.234 210.225 320.234 205.735V46.0988C320.234 41.6301 323.859 38.0264 328.308 38.0264C332.757 38.0264 336.486 41.6095 336.486 46.0988V205.715V205.735Z" fill="white" stroke="black" stroke-width="2" stroke-miterlimit="10"/>
<path d="M1222.65 205.735C1222.65 210.183 1219.02 213.808 1214.57 213.808C1210.12 213.808 1206.4 210.225 1206.4 205.735V46.0988C1206.4 41.6301 1210.02 38.0264 1214.47 38.0264C1218.92 38.0264 1222.65 41.6095 1222.65 46.0988V205.715V205.735Z" fill="white" stroke="black" stroke-width="2" stroke-miterlimit="10"/>
<path d="M1311.26 205.735C1311.26 210.183 1307.66 213.808 1303.19 213.808C1298.72 213.808 1295.01 210.225 1295.01 205.735V46.0988C1295.01 41.6301 1298.64 38.0264 1303.09 38.0264C1307.53 38.0264 1311.26 41.6095 1311.26 46.0988V205.715V205.735Z" fill="white" stroke="black" stroke-width="2" stroke-miterlimit="10"/>
<path d="M1134.03 205.735C1134.03 210.183 1130.41 213.808 1125.96 213.808C1121.51 213.808 1117.78 210.225 1117.78 205.735V46.0988C1117.78 41.6301 1121.41 38.0264 1125.86 38.0264C1130.31 38.0264 1134.03 41.6095 1134.03 46.0988V205.715V205.735Z" fill="white" stroke="black" stroke-width="2" stroke-miterlimit="10"/>
<path d="M1045.42 205.735C1045.42 210.183 1041.82 213.808 1037.35 213.808C1032.88 213.808 1029.17 210.225 1029.17 205.735V46.0988C1029.17 41.6301 1032.77 38.0264 1037.24 38.0264C1041.71 38.0264 1045.42 41.6095 1045.42 46.0988V205.715V205.735Z" fill="white" stroke="black" stroke-width="2" stroke-miterlimit="10"/>
<path d="M956.806 205.735C956.806 210.183 953.181 213.808 948.731 213.808C944.282 213.808 940.554 210.225 940.554 205.735V46.0988C940.554 41.6301 944.179 38.0264 948.628 38.0264C953.077 38.0264 956.806 41.6095 956.806 46.0988V205.715V205.735Z" fill="white" stroke="black" stroke-width="2" stroke-miterlimit="10"/>
<path d="M868.192 205.735C868.192 210.183 864.566 213.808 860.117 213.808C855.668 213.808 851.939 210.225 851.939 205.735V46.0988C851.939 41.6301 855.565 38.0264 860.014 38.0264C864.463 38.0264 868.192 41.6095 868.192 46.0988V205.715V205.735Z" fill="white" stroke="black" stroke-width="2" stroke-miterlimit="10"/>
<path d="M779.577 205.735C779.577 210.183 775.973 213.808 771.503 213.808C767.033 213.808 763.325 210.225 763.325 205.735V46.0988C763.325 41.6301 766.93 38.0264 771.4 38.0264C775.87 38.0264 779.577 41.6095 779.577 46.0988V205.715V205.735Z" fill="white" stroke="black" stroke-width="2" stroke-miterlimit="10"/>
<path d="M690.963 205.735C690.963 210.183 687.338 213.808 682.889 213.808C678.439 213.808 674.711 210.225 674.711 205.735V46.0988C674.711 41.6301 678.336 38.0264 682.786 38.0264C687.235 38.0264 690.963 41.6095 690.963 46.0988V205.715V205.735Z" fill="white" stroke="black" stroke-width="2" stroke-miterlimit="10"/>
<path d="M602.328 205.735C602.328 210.183 598.703 213.808 594.254 213.808C589.804 213.808 586.076 210.225 586.076 205.735V46.0988C586.076 41.6301 589.701 38.0264 594.151 38.0264C598.6 38.0264 602.328 41.6095 602.328 46.0988V205.715V205.735Z" fill="white" stroke="black" stroke-width="2" stroke-miterlimit="10"/>
<path d="M513.735 205.735C513.735 210.183 510.109 213.808 505.66 213.808C501.211 213.808 497.483 210.225 497.483 205.735V46.0988C497.483 41.6301 501.087 38.0264 505.557 38.0264C510.027 38.0264 513.735 41.6095 513.735 46.0988V205.715V205.735Z" fill="white" stroke="black" stroke-width="2" stroke-miterlimit="10"/>
<path d="M425.1 205.735C425.1 210.183 421.474 213.808 417.025 213.808C412.576 213.808 408.848 210.225 408.848 205.735V46.0988C408.848 41.6301 412.473 38.0264 416.922 38.0264C421.371 38.0264 425.1 41.6095 425.1 46.0988V205.715V205.735Z" fill="white" stroke="black" stroke-width="2" stroke-miterlimit="10"/>
<path d="M1282.45 293.214H1295.05C1299.52 293.214 1303.13 296.818 1303.13 301.286V302.934C1303.13 307.402 1299.52 311.006 1295.05 311.006H1282.45V293.193V293.214Z" fill="white" stroke="black" stroke-width="2" stroke-miterlimit="10"/>
<path d="M1284.96 266.278H837.5C833.051 266.278 829.425 269.882 829.425 274.351V324.33C829.425 328.778 833.03 332.402 837.5 332.402H850.127C850.127 332.402 850.127 332.217 850.127 332.135C850.127 298.259 877.584 270.809 911.469 270.809C942.716 270.809 971.76 294.553 972.811 332.402C1001.01 332.402 964.736 332.402 992.626 332.402C992.626 278.614 1055.06 252.296 1093.78 285.45C1106.45 296.262 1114.73 312.571 1115.29 332.464H1125.18L1125.22 332.382H1135.08C1135.08 297.889 1163.02 270.788 1196.41 270.788C1227.61 270.788 1256.68 294.45 1257.75 332.464H1285.21C1289.68 332.464 1293.28 328.86 1293.28 324.392V274.33C1293.28 269.8 1289.49 266.258 1284.96 266.258V266.278Z" fill="white" stroke="black" stroke-width="2" stroke-miterlimit="10"/>
<path d="M271.168 280.22H365.715C370.164 280.22 373.789 283.844 373.789 288.292V344.655C373.789 349.103 370.164 352.728 365.715 352.728H271.168C266.719 352.728 263.094 349.103 263.094 344.655V288.292C263.094 283.844 266.719 280.22 271.168 280.22Z" fill="white" stroke="black" stroke-width="2" stroke-miterlimit="10"/>
<path d="M351.564 353.675C351.564 356.434 349.319 358.658 346.579 358.658C343.839 358.658 341.594 356.434 341.594 353.675V280.323C341.594 277.563 343.819 275.339 346.579 275.339C349.339 275.339 351.564 277.563 351.564 280.323V353.675Z" fill="white" stroke="black" stroke-width="2" stroke-miterlimit="10"/>
<path d="M323.426 353.675C323.426 356.434 321.202 358.658 318.442 358.658C315.681 358.658 313.457 356.434 313.457 353.675V280.323C313.457 277.563 315.681 275.339 318.442 275.339C321.202 275.339 323.426 277.563 323.426 280.323V353.675Z" fill="white" stroke="black" stroke-width="2" stroke-miterlimit="10"/>
<path d="M295.289 353.675C295.289 356.434 293.064 358.658 290.304 358.658C287.544 358.658 285.319 356.434 285.319 353.675V280.323C285.319 277.563 287.544 275.339 290.304 275.339C293.064 275.339 295.289 277.563 295.289 280.323V353.675Z" fill="white" stroke="black" stroke-width="2" stroke-miterlimit="10"/>
<path d="M507.287 331.95C507.287 360.944 483.785 384.462 454.782 384.462C425.78 384.462 402.256 360.944 402.256 331.95C402.256 302.955 425.759 279.438 454.782 279.438C483.805 279.438 507.287 302.955 507.287 331.95Z" fill="white" stroke="black" stroke-width="2" stroke-miterlimit="10"/>
<path d="M490.376 331.949C490.376 351.616 474.433 367.534 454.782 367.534C435.131 367.534 419.168 351.595 419.168 331.949C419.168 312.304 435.111 296.344 454.782 296.344C474.454 296.344 490.376 312.283 490.376 331.949Z" fill="white" stroke="black" stroke-width="2" stroke-miterlimit="10"/>
<path d="M483.455 331.949C483.455 347.785 470.602 360.635 454.762 360.635C438.921 360.635 426.068 347.785 426.068 331.949C426.068 316.113 438.921 303.263 454.762 303.263C470.602 303.263 483.455 316.113 483.455 331.949Z" fill="white" stroke="black" stroke-width="2" stroke-miterlimit="10"/>
<path d="M471.343 331.949C471.343 341.113 463.928 348.527 454.762 348.527C445.595 348.527 438.18 341.113 438.18 331.949C438.18 322.786 445.595 315.372 454.762 315.372C463.928 315.372 471.343 322.786 471.343 331.949Z" fill="white" stroke="black" stroke-width="2" stroke-miterlimit="10"/>
<path d="M650.858 331.95C650.858 360.944 627.355 384.462 598.332 384.462C569.309 384.462 545.806 360.944 545.806 331.95C545.806 302.955 569.309 279.438 598.332 279.438C627.355 279.438 650.858 302.955 650.858 331.95Z" fill="white" stroke="black" stroke-width="2" stroke-miterlimit="10"/>
<path d="M633.947 331.949C633.947 351.616 618.004 367.534 598.353 367.534C578.702 367.534 562.738 351.595 562.738 331.949C562.738 312.304 578.681 296.344 598.353 296.344C618.024 296.344 633.947 312.283 633.947 331.949Z" fill="white" stroke="black" stroke-width="2" stroke-miterlimit="10"/>
<path d="M627.026 331.949C627.026 347.785 614.172 360.635 598.332 360.635C582.492 360.635 569.639 347.785 569.639 331.949C569.639 316.113 582.492 303.263 598.332 303.263C614.172 303.263 627.026 316.113 627.026 331.949Z" fill="white" stroke="black" stroke-width="2" stroke-miterlimit="10"/>
<path d="M614.914 331.949C614.914 341.113 607.498 348.527 598.332 348.527C589.166 348.527 581.75 341.113 581.75 331.949C581.75 322.786 589.166 315.372 598.332 315.372C607.498 315.372 614.914 322.786 614.914 331.949Z" fill="white" stroke="black" stroke-width="2" stroke-miterlimit="10"/>
<path d="M963.562 331.95C963.562 360.944 940.059 384.462 911.057 384.462C882.054 384.462 858.531 360.944 858.531 331.95C858.531 302.955 882.034 279.438 911.057 279.438C940.08 279.438 963.562 302.955 963.562 331.95Z" fill="white" stroke="black" stroke-width="2" stroke-miterlimit="10"/>
<path d="M946.651 331.949C946.651 351.616 930.708 367.534 911.057 367.534C891.406 367.534 875.442 351.595 875.442 331.949C875.442 312.304 891.385 296.344 911.057 296.344C930.728 296.344 946.651 312.283 946.651 331.949Z" fill="white" stroke="black" stroke-width="2" stroke-miterlimit="10"/>
<path d="M939.73 331.949C939.73 347.785 926.876 360.635 911.036 360.635C895.196 360.635 882.343 347.785 882.343 331.949C882.343 316.113 895.196 303.263 911.036 303.263C926.876 303.263 939.73 316.113 939.73 331.949Z" fill="white" stroke="black" stroke-width="2" stroke-miterlimit="10"/>
<path d="M927.618 331.949C927.618 341.113 920.203 348.527 911.036 348.527C901.87 348.527 894.455 341.113 894.455 331.949C894.455 322.786 901.87 315.372 911.036 315.372C920.203 315.372 927.618 322.786 927.618 331.949Z" fill="white" stroke="black" stroke-width="2" stroke-miterlimit="10"/>
<path d="M1106.8 331.95C1106.8 360.944 1083.3 384.462 1054.3 384.462C1025.3 384.462 1001.77 360.944 1001.77 331.95C1001.77 302.955 1025.3 279.438 1054.3 279.438C1083.3 279.438 1106.8 302.955 1106.8 331.95Z" fill="white" stroke="black" stroke-width="2" stroke-miterlimit="10"/>
<path d="M1089.89 331.949C1089.89 351.616 1073.95 367.534 1054.28 367.534C1034.61 367.534 1018.66 351.595 1018.66 331.949C1018.66 312.304 1034.61 296.344 1054.28 296.344C1073.95 296.344 1089.89 312.283 1089.89 331.949Z" fill="white" stroke="black" stroke-width="2" stroke-miterlimit="10"/>
<path d="M1082.97 331.949C1082.97 347.785 1070.12 360.635 1054.28 360.635C1038.44 360.635 1025.58 347.785 1025.58 331.949C1025.58 316.113 1038.44 303.263 1054.28 303.263C1070.12 303.263 1082.97 316.113 1082.97 331.949Z" fill="white" stroke="black" stroke-width="2" stroke-miterlimit="10"/>
<path d="M1070.88 331.949C1070.88 341.113 1063.44 348.527 1054.3 348.527C1045.15 348.527 1037.72 341.113 1037.72 331.949C1037.72 322.786 1045.15 315.372 1054.3 315.372C1063.44 315.372 1070.88 322.786 1070.88 331.949Z" fill="white" stroke="black" stroke-width="2" stroke-miterlimit="10"/>
<path d="M1249.28 331.95C1249.28 360.944 1225.78 384.462 1196.78 384.462C1167.77 384.462 1144.25 360.944 1144.25 331.95C1144.25 302.955 1167.75 279.438 1196.78 279.438C1225.8 279.438 1249.28 302.955 1249.28 331.95Z" fill="white" stroke="black" stroke-width="2" stroke-miterlimit="10"/>
<path d="M1232.37 331.949C1232.37 351.616 1216.43 367.534 1196.78 367.534C1177.13 367.534 1161.16 351.595 1161.16 331.949C1161.16 312.304 1177.11 296.344 1196.78 296.344C1216.45 296.344 1232.37 312.283 1232.37 331.949Z" fill="white" stroke="black" stroke-width="2" stroke-miterlimit="10"/>
<path d="M1225.45 331.949C1225.45 347.785 1212.6 360.635 1196.76 360.635C1180.92 360.635 1168.06 347.785 1168.06 331.949C1168.06 316.113 1180.92 303.263 1196.76 303.263C1212.6 303.263 1225.45 316.113 1225.45 331.949Z" fill="white" stroke="black" stroke-width="2" stroke-miterlimit="10"/>
<path d="M1213.34 331.949C1213.34 341.113 1205.92 348.527 1196.76 348.527C1187.59 348.527 1180.17 341.113 1180.17 331.949C1180.17 322.786 1187.59 315.372 1196.76 315.372C1205.92 315.372 1213.34 322.786 1213.34 331.949Z" fill="white" stroke="black" stroke-width="2" stroke-miterlimit="10"/>
</svg>
